<?xml version="1.0" encoding="UTF-8"?><svg id="uuid-0afb28dc-dd38-4469-aee6-b20c1b7ac185" xmlns="http://www.w3.org/2000/svg" viewBox="0 0 3219.92 1726"><defs><style>.uuid-53ebfd68-cc55-473b-b97a-24e3ff4299bd{fill:#0a0a0a;}</style></defs><g><g><path class="uuid-53ebfd68-cc55-473b-b97a-24e3ff4299bd" d="M54,1636c-.52,0-1.05-.05-1.56-.16-.51-.1-1.02-.25-1.5-.45-.48-.2-.95-.45-1.38-.74-.44-.29-.85-.63-1.22-.99-.37-.37-.7-.78-.99-1.22-.29-.43-.54-.9-.74-1.38-.2-.48-.35-.99-.45-1.5-.11-.51-.16-1.04-.16-1.56s.05-1.05,.16-1.56c.1-.52,.25-1.02,.45-1.5,.2-.48,.45-.95,.74-1.38,.29-.44,.62-.85,.99-1.22,.37-.37,.78-.7,1.22-.99,.43-.29,.9-.54,1.38-.74,.48-.2,.99-.35,1.5-.45,2.6-.53,5.36,.33,7.22,2.18,.37,.37,.7,.78,.99,1.22,.29,.43,.54,.9,.74,1.38,.2,.48,.35,.98,.45,1.5,.11,.51,.16,1.04,.16,1.56,0,2.1-.85,4.17-2.34,5.66-1.49,1.49-3.55,2.34-5.66,2.34Z"/><path class="uuid-53ebfd68-cc55-473b-b97a-24e3ff4299bd" d="M3113.69,1628c0-4.42,3.58-8,8-8h0c4.42,0,8,3.58,8,8h0c0,4.42-3.58,8-8,8h0c-4.42,0-8-3.58-8-8Zm-90.22,0c0-4.42,3.57-8,8-8h0c4.41,0,7.99,3.58,7.99,8h0c0,4.42-3.58,8-7.99,8h0c-4.43,0-8-3.58-8-8Zm-90.23,0c0-4.42,3.58-8,8-8h0c4.42,0,8,3.58,8,8h0c0,4.42-3.58,8-8,8h0c-4.42,0-8-3.58-8-8Zm-90.23,0c0-4.42,3.58-8,8-8h0c4.42,0,8,3.58,8,8h0c0,4.42-3.58,8-8,8h0c-4.42,0-8-3.58-8-8Zm-90.22,0c0-4.42,3.58-8,8-8h0c4.41,0,8,3.58,8,8h0c0,4.42-3.59,8-8,8h0c-4.42,0-8-3.58-8-8Zm-90.23,0c0-4.42,3.58-8,8-8h0c4.42,0,8,3.58,8,8h0c0,4.42-3.58,8-8,8h0c-4.42,0-8-3.58-8-8Zm-90.23,0c0-4.42,3.58-8,8-8h0c4.42,0,8,3.58,8,8h0c0,4.42-3.58,8-8,8h0c-4.42,0-8-3.58-8-8Zm-90.22,0c0-4.42,3.58-8,8-8h0c4.41,0,8,3.58,8,8h0c0,4.42-3.59,8-8,8h0c-4.42,0-8-3.58-8-8Zm-90.23,0c0-4.42,3.58-8,8-8h0c4.42,0,8,3.58,8,8h0c0,4.42-3.58,8-8,8h0c-4.42,0-8-3.58-8-8Zm-90.23,0c0-4.42,3.59-8,8.01-8h0c4.41,0,7.99,3.58,7.99,8h0c0,4.42-3.58,8-7.99,8h0c-4.42,0-8.01-3.58-8.01-8Zm-90.22,0c0-4.42,3.58-8,8-8h0c4.42,0,8,3.58,8,8h0c0,4.42-3.58,8-8,8h0c-4.42,0-8-3.58-8-8Zm-90.23,0c0-4.42,3.58-8,8-8h0c4.42,0,8,3.58,8,8h0c0,4.42-3.58,8-8,8h0c-4.42,0-8-3.58-8-8Zm-90.22,0c0-4.42,3.58-8,8-8h0c4.41,0,8,3.58,8,8h0c0,4.42-3.59,8-8,8h0c-4.42,0-8-3.58-8-8Zm-90.23,0c0-4.42,3.58-8,8-8h0c4.42,0,8,3.58,8,8h0c0,4.42-3.58,8-8,8h0c-4.42,0-8-3.58-8-8Zm-90.23,0c0-4.42,3.59-8,8-8h0c4.42,0,8,3.58,8,8h0c0,4.42-3.58,8-8,8h0c-4.41,0-8-3.58-8-8Zm-90.22,0c0-4.42,3.58-8,8-8h0c4.42,0,8,3.58,8,8h0c0,4.42-3.58,8-8,8h0c-4.42,0-8-3.58-8-8Zm-90.23,0c0-4.42,3.58-8,8-8h0c4.42,0,8,3.58,8,8h0c0,4.42-3.58,8-8,8h0c-4.42,0-8-3.58-8-8Zm-90.23,0c0-4.42,3.59-8,8.01-8h0c4.41,0,8,3.58,8,8h0c0,4.42-3.59,8-8,8h0c-4.42,0-8.01-3.58-8.01-8Zm-90.22,0c0-4.42,3.58-8,8-8h0c4.42,0,8,3.58,8,8h0c0,4.42-3.58,8-8,8h0c-4.42,0-8-3.58-8-8Zm-90.23,0c0-4.42,3.59-8,8-8h0c4.42,0,8,3.58,8,8h0c0,4.42-3.58,8-8,8h0c-4.41,0-8-3.58-8-8Zm-90.22,0c0-4.42,3.58-8,8-8h0c4.42,0,8,3.58,8,8h0c0,4.42-3.58,8-8,8h0c-4.42,0-8-3.58-8-8Zm-90.23,0c0-4.42,3.58-8,8-8h0c4.42,0,8,3.58,8,8h0c0,4.42-3.58,8-8,8h0c-4.42,0-8-3.58-8-8Zm-90.23,0c0-4.42,3.59-8,8-8h0c4.42,0,8,3.58,8,8h0c0,4.42-3.58,8-8,8h0c-4.41,0-8-3.58-8-8Zm-90.22,0c0-4.42,3.58-8,8-8h0c4.42,0,8,3.58,8,8h0c0,4.42-3.58,8-8,8h0c-4.42,0-8-3.58-8-8Zm-90.23,0c0-4.42,3.58-8,8-8h0c4.42,0,8,3.58,8,8h0c0,4.42-3.58,8-8,8h0c-4.42,0-8-3.58-8-8Zm-90.22,0c0-4.42,3.58-8,8-8h0c4.41,0,8,3.58,8,8h0c0,4.42-3.59,8-8,8h0c-4.42,0-8-3.58-8-8Zm-90.23,0c0-4.42,3.58-8,8-8h0c4.42,0,8,3.58,8,8h0c0,4.42-3.58,8-8,8h0c-4.42,0-8-3.58-8-8Zm-90.23,0c0-4.42,3.59-8,8-8h0c4.42,0,8,3.58,8,8h0c0,4.42-3.58,8-8,8h0c-4.41,0-8-3.58-8-8Zm-90.22,0c0-4.42,3.58-8,8-8h0c4.42,0,8,3.58,8,8h0c0,4.42-3.58,8-8,8h0c-4.42,0-8-3.58-8-8Zm-90.23,0c0-4.42,3.58-8,8-8h0c4.42,0,8,3.58,8,8h0c0,4.42-3.58,8-8,8h0c-4.42,0-8-3.58-8-8Zm-90.22,0c0-4.42,3.58-8,7.99-8h0c4.42,0,8.01,3.58,8.01,8h0c0,4.42-3.59,8-8.01,8h0c-4.41,0-7.99-3.58-7.99-8Zm-90.23,0c0-4.42,3.58-8,8-8h0c4.42,0,8,3.58,8,8h0c0,4.42-3.58,8-8,8h0c-4.42,0-8-3.58-8-8Zm-90.23,0c0-4.42,3.58-8,8-8h0c4.42,0,8,3.58,8,8h0c0,4.42-3.58,8-8,8h0c-4.42,0-8-3.58-8-8Zm-90.22,0c0-4.42,3.58-8,8-8h0c4.42,0,8,3.58,8,8h0c0,4.42-3.58,8-8,8h0c-4.42,0-8-3.58-8-8Z"/><path class="uuid-53ebfd68-cc55-473b-b97a-24e3ff4299bd" d="M3211.92,1636c-.52,0-1.05-.05-1.56-.16-.51-.1-1.02-.25-1.5-.45-.48-.2-.95-.45-1.38-.74-.44-.29-.85-.62-1.22-.99s-.7-.78-.99-1.22c-.29-.43-.54-.9-.74-1.38-.2-.48-.35-.99-.45-1.5-.11-.51-.16-1.04-.16-1.56s.05-1.05,.16-1.56c.1-.51,.25-1.02,.45-1.5,.2-.48,.45-.95,.74-1.38,.29-.44,.62-.85,.99-1.22,.37-.37,.78-.7,1.22-.99,.43-.29,.9-.54,1.38-.74,.48-.2,.99-.35,1.5-.45,2.6-.53,5.36,.33,7.22,2.18,.37,.37,.7,.78,.99,1.22,.29,.43,.54,.9,.74,1.38,.2,.48,.35,.99,.45,1.5,.11,.51,.16,1.04,.16,1.56s-.05,1.05-.16,1.56c-.1,.51-.25,1.02-.45,1.5-.2,.48-.45,.95-.74,1.38-.29,.44-.62,.85-.99,1.22-1.49,1.49-3.55,2.34-5.66,2.34Z"/></g><g><path class="uuid-53ebfd68-cc55-473b-b97a-24e3ff4299bd" d="M8,1726c-.52,0-1.05-.05-1.56-.16-.51-.1-1.02-.25-1.5-.45-.48-.2-.95-.45-1.38-.74-.44-.29-.85-.63-1.22-.99-1.49-1.49-2.34-3.55-2.34-5.66,0-.52,.05-1.05,.16-1.56,.1-.51,.25-1.02,.45-1.5,.2-.48,.45-.95,.74-1.38,.29-.44,.62-.85,.99-1.22,.37-.37,.78-.7,1.22-.99,.43-.29,.9-.54,1.38-.74,.48-.2,.99-.35,1.5-.45,2.6-.53,5.36,.32,7.22,2.18,.37,.37,.7,.78,.99,1.22,.29,.43,.54,.9,.74,1.38,.2,.48,.35,.99,.45,1.5,.11,.51,.16,1.04,.16,1.56,0,2.1-.85,4.17-2.34,5.66-1.49,1.49-3.56,2.34-5.66,2.34Z"/><path class="uuid-53ebfd68-cc55-473b-b97a-24e3ff4299bd" d="M3067.69,1718c0-4.42,3.58-8,8-8h0c4.42,0,8,3.58,8,8h0c0,4.42-3.58,8-8,8h0c-4.42,0-8-3.58-8-8Zm-90.23,0c0-4.42,3.59-8,8-8h0c4.42,0,8,3.58,8,8h0c0,4.42-3.58,8-8,8h0c-4.41,0-8-3.58-8-8Zm-90.22,0c0-4.42,3.58-8,8-8h0c4.42,0,8,3.58,8,8h0c0,4.42-3.58,8-8,8h0c-4.42,0-8-3.58-8-8Zm-90.23,0c0-4.42,3.58-8,8-8h0c4.42,0,8,3.58,8,8h0c0,4.42-3.58,8-8,8h0c-4.42,0-8-3.58-8-8Zm-90.22,0c0-4.42,3.58-8,8-8h0c4.41,0,7.99,3.58,7.99,8h0c0,4.42-3.58,8-7.99,8h0c-4.42,0-8-3.58-8-8Zm-90.23,0c0-4.42,3.58-8,8-8h0c4.42,0,8,3.58,8,8h0c0,4.42-3.58,8-8,8h0c-4.42,0-8-3.58-8-8Zm-90.23,0c0-4.42,3.59-8,8-8h0c4.42,0,8,3.58,8,8h0c0,4.42-3.58,8-8,8h0c-4.41,0-8-3.58-8-8Zm-90.22,0c0-4.42,3.58-8,8-8h0c4.41,0,8,3.58,8,8h0c0,4.42-3.59,8-8,8h0c-4.42,0-8-3.58-8-8Zm-90.23,0c0-4.42,3.58-8,8-8h0c4.42,0,8,3.58,8,8h0c0,4.42-3.58,8-8,8h0c-4.42,0-8-3.58-8-8Zm-90.22,0c0-4.42,3.58-8,8-8h0c4.41,0,7.99,3.58,7.99,8h0c0,4.42-3.58,8-7.99,8h0c-4.42,0-8-3.58-8-8Zm-90.23,0c0-4.42,3.58-8,8-8h0c4.42,0,8,3.58,8,8h0c0,4.42-3.58,8-8,8h0c-4.42,0-8-3.58-8-8Zm-90.23,0c0-4.42,3.58-8,8-8h0c4.42,0,8,3.58,8,8h0c0,4.42-3.58,8-8,8h0c-4.42,0-8-3.58-8-8Zm-90.22,0c0-4.42,3.58-8,8-8h0c4.42,0,8,3.58,8,8h0c0,4.42-3.58,8-8,8h0c-4.42,0-8-3.58-8-8Zm-90.23,0c0-4.42,3.58-8,8-8h0c4.42,0,8,3.58,8,8h0c0,4.42-3.58,8-8,8h0c-4.42,0-8-3.58-8-8Zm-90.23,0c0-4.42,3.59-8,8-8h0c4.42,0,8.01,3.58,8.01,8h0c0,4.42-3.59,8-8.01,8h0c-4.41,0-8-3.58-8-8Zm-90.22,0c0-4.42,3.58-8,8-8h0c4.42,0,8,3.58,8,8h0c0,4.42-3.58,8-8,8h0c-4.42,0-8-3.58-8-8Zm-90.23,0c0-4.42,3.58-8,8-8h0c4.42,0,8,3.58,8,8h0c0,4.42-3.58,8-8,8h0c-4.42,0-8-3.58-8-8Zm-90.22,0c0-4.42,3.58-8,7.99-8h0c4.42,0,8.01,3.58,8.01,8h0c0,4.42-3.59,8-8.01,8h0c-4.41,0-7.99-3.58-7.99-8Zm-90.23,0c0-4.42,3.58-8,8-8h0c4.42,0,8,3.58,8,8h0c0,4.42-3.58,8-8,8h0c-4.42,0-8-3.58-8-8Zm-90.23,0c0-4.42,3.59-8,8-8h0c4.42,0,8,3.58,8,8h0c0,4.42-3.58,8-8,8h0c-4.41,0-8-3.58-8-8Zm-90.22,0c0-4.42,3.58-8,8-8h0c4.41,0,8,3.58,8,8h0c0,4.42-3.59,8-8,8h0c-4.42,0-8-3.58-8-8Zm-90.23,0c0-4.42,3.58-8,8-8h0c4.42,0,8,3.58,8,8h0c0,4.42-3.58,8-8,8h0c-4.42,0-8-3.58-8-8Zm-90.22,0c0-4.42,3.58-8,8-8h0c4.41,0,7.99,3.58,7.99,8h0c0,4.42-3.58,8-7.99,8h0c-4.42,0-8-3.58-8-8Zm-90.23,0c0-4.42,3.58-8,8-8h0c4.42,0,8,3.58,8,8h0c0,4.42-3.58,8-8,8h0c-4.42,0-8-3.58-8-8Zm-90.23,0c0-4.42,3.58-8,8-8h0c4.42,0,8,3.58,8,8h0c0,4.42-3.58,8-8,8h0c-4.42,0-8-3.58-8-8Zm-90.22,0c0-4.42,3.58-8,8-8h0c4.42,0,8,3.58,8,8h0c0,4.42-3.58,8-8,8h0c-4.42,0-8-3.58-8-8Zm-90.23,0c0-4.42,3.58-8,8-8h0c4.42,0,8,3.58,8,8h0c0,4.42-3.58,8-8,8h0c-4.42,0-8-3.58-8-8Zm-90.23,0c0-4.42,3.58-8,8-8h0c4.42,0,8,3.58,8,8h0c0,4.42-3.58,8-8,8h0c-4.42,0-8-3.58-8-8Zm-90.22,0c0-4.42,3.58-8,8-8h0c4.42,0,8,3.58,8,8h0c0,4.42-3.58,8-8,8h0c-4.42,0-8-3.58-8-8Zm-90.23,0c0-4.42,3.58-8,8-8h0c4.42,0,8,3.58,8,8h0c0,4.42-3.58,8-8,8h0c-4.42,0-8-3.58-8-8Zm-90.23,0c0-4.42,3.59-8,8-8h0c4.42,0,8,3.58,8,8h0c0,4.42-3.58,8-8,8h0c-4.41,0-8-3.58-8-8Zm-90.22,0c0-4.42,3.58-8,8-8h0c4.42,0,8,3.58,8,8h0c0,4.42-3.58,8-8,8h0c-4.42,0-8-3.58-8-8Zm-90.23,0c0-4.42,3.59-8,8-8h0c4.42,0,8,3.58,8,8h0c0,4.42-3.58,8-8,8h0c-4.41,0-8-3.58-8-8Zm-90.22,0c0-4.42,3.58-8,8-8h0c4.41,0,8,3.58,8,8h0c0,4.42-3.59,8-8,8h0c-4.42,0-8-3.58-8-8Z"/><path class="uuid-53ebfd68-cc55-473b-b97a-24e3ff4299bd" d="M3165.92,1726c-.52,0-1.05-.05-1.56-.16-.51-.1-1.02-.25-1.5-.45-.48-.2-.95-.45-1.38-.74-.44-.29-.85-.62-1.22-.99-1.49-1.49-2.34-3.56-2.34-5.66,0-.52,.05-1.05,.16-1.56,.1-.51,.25-1.02,.45-1.5,.2-.48,.45-.95,.74-1.38,.29-.44,.62-.85,.99-1.22,1.86-1.86,4.63-2.71,7.22-2.19,.51,.11,1.02,.26,1.5,.46,.48,.2,.95,.45,1.38,.74,.44,.29,.85,.62,1.21,.99,.37,.37,.71,.78,1,1.22,.29,.43,.54,.9,.74,1.38,.2,.48,.35,.99,.45,1.5,.11,.51,.16,1.04,.16,1.56s-.05,1.05-.16,1.56c-.1,.51-.25,1.02-.45,1.5-.2,.48-.45,.95-.74,1.38-.29,.44-.63,.85-1,1.22-.36,.37-.77,.7-1.21,.99-.43,.29-.9,.54-1.38,.74-.48,.2-.99,.35-1.5,.45-.51,.11-1.04,.16-1.56,.16Z"/></g></g><g><g><path class="uuid-53ebfd68-cc55-473b-b97a-24e3ff4299bd" d="M54,1456c-2.1,0-4.17-.85-5.66-2.34-1.49-1.49-2.34-3.56-2.34-5.66,0-.52,.05-1.05,.16-1.56,.1-.51,.25-1.02,.45-1.5,.2-.48,.45-.95,.74-1.38,.29-.44,.62-.85,.99-1.22,.37-.37,.78-.7,1.22-.99,.43-.29,.9-.54,1.38-.74,.48-.2,.99-.35,1.5-.45,2.6-.53,5.36,.33,7.22,2.18,.36,.37,.7,.78,.99,1.22,.29,.43,.54,.9,.74,1.38,.2,.48,.35,.99,.45,1.5,.11,.51,.16,1.04,.16,1.56,0,2.11-.85,4.17-2.34,5.66-1.49,1.49-3.55,2.34-5.66,2.34Z"/><path class="uuid-53ebfd68-cc55-473b-b97a-24e3ff4299bd" d="M3113.69,1448c0-4.42,3.58-8,8-8h0c4.42,0,8,3.58,8,8h0c0,4.42-3.58,8-8,8h0c-4.42,0-8-3.58-8-8Zm-90.22,0c0-4.42,3.57-8,8-8h0c4.41,0,7.99,3.58,7.99,8h0c0,4.42-3.58,8-7.99,8h0c-4.43,0-8-3.58-8-8Zm-90.23,0c0-4.42,3.58-8,8-8h0c4.42,0,8,3.58,8,8h0c0,4.42-3.58,8-8,8h0c-4.42,0-8-3.58-8-8Zm-90.23,0c0-4.42,3.58-8,8-8h0c4.42,0,8,3.58,8,8h0c0,4.42-3.58,8-8,8h0c-4.42,0-8-3.58-8-8Zm-90.22,0c0-4.42,3.58-8,8-8h0c4.41,0,8,3.58,8,8h0c0,4.42-3.59,8-8,8h0c-4.42,0-8-3.58-8-8Zm-90.23,0c0-4.42,3.58-8,8-8h0c4.42,0,8,3.58,8,8h0c0,4.42-3.58,8-8,8h0c-4.42,0-8-3.58-8-8Zm-90.23,0c0-4.42,3.58-8,8-8h0c4.42,0,8,3.58,8,8h0c0,4.42-3.58,8-8,8h0c-4.42,0-8-3.58-8-8Zm-90.22,0c0-4.42,3.58-8,8-8h0c4.41,0,8,3.58,8,8h0c0,4.42-3.59,8-8,8h0c-4.42,0-8-3.58-8-8Zm-90.23,0c0-4.42,3.58-8,8-8h0c4.42,0,8,3.58,8,8h0c0,4.42-3.58,8-8,8h0c-4.42,0-8-3.58-8-8Zm-90.23,0c0-4.42,3.59-8,8.01-8h0c4.41,0,7.99,3.58,7.99,8h0c0,4.42-3.58,8-7.99,8h0c-4.42,0-8.01-3.58-8.01-8Zm-90.22,0c0-4.42,3.58-8,8-8h0c4.42,0,8,3.58,8,8h0c0,4.42-3.58,8-8,8h0c-4.42,0-8-3.58-8-8Zm-90.23,0c0-4.42,3.58-8,8-8h0c4.42,0,8,3.58,8,8h0c0,4.42-3.58,8-8,8h0c-4.42,0-8-3.58-8-8Zm-90.22,0c0-4.42,3.58-8,8-8h0c4.41,0,8,3.58,8,8h0c0,4.42-3.59,8-8,8h0c-4.42,0-8-3.58-8-8Zm-90.23,0c0-4.42,3.58-8,8-8h0c4.42,0,8,3.58,8,8h0c0,4.42-3.58,8-8,8h0c-4.42,0-8-3.58-8-8Zm-90.23,0c0-4.42,3.59-8,8-8h0c4.42,0,8,3.58,8,8h0c0,4.42-3.58,8-8,8h0c-4.41,0-8-3.58-8-8Zm-90.22,0c0-4.42,3.58-8,8-8h0c4.42,0,8,3.58,8,8h0c0,4.42-3.58,8-8,8h0c-4.42,0-8-3.58-8-8Zm-90.23,0c0-4.42,3.58-8,8-8h0c4.42,0,8,3.58,8,8h0c0,4.42-3.58,8-8,8h0c-4.42,0-8-3.58-8-8Zm-90.23,0c0-4.42,3.59-8,8.01-8h0c4.41,0,8,3.58,8,8h0c0,4.42-3.59,8-8,8h0c-4.42,0-8.01-3.58-8.01-8Zm-90.22,0c0-4.42,3.58-8,8-8h0c4.42,0,8,3.58,8,8h0c0,4.42-3.58,8-8,8h0c-4.42,0-8-3.58-8-8Zm-90.23,0c0-4.42,3.59-8,8-8h0c4.42,0,8,3.58,8,8h0c0,4.42-3.58,8-8,8h0c-4.41,0-8-3.58-8-8Zm-90.22,0c0-4.42,3.58-8,8-8h0c4.42,0,8,3.58,8,8h0c0,4.42-3.58,8-8,8h0c-4.42,0-8-3.58-8-8Zm-90.23,0c0-4.42,3.58-8,8-8h0c4.42,0,8,3.58,8,8h0c0,4.42-3.58,8-8,8h0c-4.42,0-8-3.58-8-8Zm-90.23,0c0-4.42,3.59-8,8-8h0c4.42,0,8,3.58,8,8h0c0,4.42-3.58,8-8,8h0c-4.41,0-8-3.58-8-8Zm-90.22,0c0-4.42,3.58-8,8-8h0c4.42,0,8,3.58,8,8h0c0,4.42-3.58,8-8,8h0c-4.42,0-8-3.58-8-8Zm-90.23,0c0-4.42,3.58-8,8-8h0c4.42,0,8,3.58,8,8h0c0,4.42-3.58,8-8,8h0c-4.42,0-8-3.58-8-8Zm-90.22,0c0-4.42,3.58-8,8-8h0c4.41,0,8,3.58,8,8h0c0,4.42-3.59,8-8,8h0c-4.42,0-8-3.58-8-8Zm-90.23,0c0-4.42,3.58-8,8-8h0c4.42,0,8,3.58,8,8h0c0,4.42-3.58,8-8,8h0c-4.42,0-8-3.58-8-8Zm-90.23,0c0-4.42,3.59-8,8-8h0c4.42,0,8,3.58,8,8h0c0,4.42-3.58,8-8,8h0c-4.41,0-8-3.58-8-8Zm-90.22,0c0-4.42,3.58-8,8-8h0c4.42,0,8,3.58,8,8h0c0,4.42-3.58,8-8,8h0c-4.42,0-8-3.58-8-8Zm-90.23,0c0-4.42,3.58-8,8-8h0c4.42,0,8,3.58,8,8h0c0,4.42-3.58,8-8,8h0c-4.42,0-8-3.58-8-8Zm-90.22,0c0-4.42,3.58-8,7.99-8h0c4.42,0,8.01,3.58,8.01,8h0c0,4.42-3.59,8-8.01,8h0c-4.41,0-7.99-3.58-7.99-8Zm-90.23,0c0-4.42,3.58-8,8-8h0c4.42,0,8,3.58,8,8h0c0,4.42-3.58,8-8,8h0c-4.42,0-8-3.58-8-8Zm-90.23,0c0-4.42,3.58-8,8-8h0c4.42,0,8,3.58,8,8h0c0,4.42-3.58,8-8,8h0c-4.42,0-8-3.58-8-8Zm-90.22,0c0-4.42,3.58-8,8-8h0c4.42,0,8,3.58,8,8h0c0,4.42-3.58,8-8,8h0c-4.42,0-8-3.58-8-8Z"/><path class="uuid-53ebfd68-cc55-473b-b97a-24e3ff4299bd" d="M3211.92,1456c-.52,0-1.05-.05-1.56-.16-.51-.1-1.02-.25-1.5-.45-.48-.2-.95-.45-1.38-.74-.44-.29-.85-.62-1.22-.99-1.49-1.49-2.34-3.55-2.34-5.66,0-.52,.05-1.05,.16-1.56,.1-.51,.25-1.02,.45-1.5,.2-.48,.45-.95,.74-1.38,.29-.44,.62-.85,.99-1.22,.37-.37,.78-.7,1.22-.99,.43-.29,.9-.54,1.38-.74,.48-.2,.99-.35,1.5-.45,1.03-.21,2.09-.21,3.12,0,.51,.1,1.02,.25,1.5,.45,.48,.2,.95,.45,1.38,.74,.44,.29,.85,.62,1.22,.99,.37,.37,.7,.78,.99,1.22,.29,.43,.54,.9,.74,1.38,.2,.48,.35,.99,.45,1.5,.11,.51,.16,1.04,.16,1.56,0,2.11-.85,4.17-2.34,5.66-.37,.37-.78,.7-1.22,.99-.43,.29-.9,.54-1.38,.74-.48,.2-.99,.35-1.5,.45-.51,.11-1.04,.16-1.56,.16Z"/></g><g><path class="uuid-53ebfd68-cc55-473b-b97a-24e3ff4299bd" d="M8,1546c-.52,0-1.05-.05-1.56-.16-.51-.1-1.02-.25-1.5-.45-.48-.2-.95-.45-1.38-.74-.44-.29-.85-.62-1.22-.99-.37-.37-.7-.78-.99-1.22-.29-.43-.54-.9-.74-1.38-.2-.48-.35-.99-.45-1.5-.11-.51-.16-1.04-.16-1.56s.05-1.05,.16-1.56c.1-.52,.25-1.02,.45-1.5,.2-.48,.45-.95,.74-1.38,.29-.44,.62-.85,.99-1.22,.37-.37,.78-.7,1.22-.99,.43-.29,.9-.54,1.38-.74,.48-.2,.99-.35,1.5-.46,1.03-.2,2.09-.2,3.12,0,.51,.11,1.02,.26,1.5,.46,.48,.2,.95,.45,1.38,.74,.44,.29,.85,.62,1.22,.99,.37,.37,.7,.78,.99,1.22,.29,.43,.54,.9,.74,1.38,.2,.48,.35,.98,.45,1.5,.11,.51,.16,1.04,.16,1.56s-.05,1.05-.16,1.56c-.1,.51-.25,1.02-.45,1.5-.2,.48-.45,.95-.74,1.38-.29,.44-.62,.85-.99,1.22-.37,.37-.78,.7-1.22,.99-.43,.29-.9,.54-1.38,.74-.48,.2-.99,.35-1.5,.45-.51,.11-1.04,.16-1.56,.16Z"/><path class="uuid-53ebfd68-cc55-473b-b97a-24e3ff4299bd" d="M3067.69,1538c0-4.42,3.58-8,8-8h0c4.42,0,8,3.58,8,8h0c0,4.42-3.58,8-8,8h0c-4.42,0-8-3.58-8-8Zm-90.23,0c0-4.42,3.59-8,8-8h0c4.42,0,8,3.58,8,8h0c0,4.42-3.58,8-8,8h0c-4.41,0-8-3.58-8-8Zm-90.22,0c0-4.42,3.58-8,8-8h0c4.42,0,8,3.58,8,8h0c0,4.42-3.58,8-8,8h0c-4.42,0-8-3.58-8-8Zm-90.23,0c0-4.42,3.58-8,8-8h0c4.42,0,8,3.58,8,8h0c0,4.42-3.58,8-8,8h0c-4.42,0-8-3.58-8-8Zm-90.22,0c0-4.42,3.58-8,8-8h0c4.41,0,7.99,3.58,7.99,8h0c0,4.42-3.58,8-7.99,8h0c-4.42,0-8-3.58-8-8Zm-90.23,0c0-4.42,3.58-8,8-8h0c4.42,0,8,3.58,8,8h0c0,4.42-3.58,8-8,8h0c-4.42,0-8-3.58-8-8Zm-90.23,0c0-4.42,3.59-8,8-8h0c4.42,0,8,3.58,8,8h0c0,4.42-3.58,8-8,8h0c-4.41,0-8-3.58-8-8Zm-90.22,0c0-4.42,3.58-8,8-8h0c4.41,0,8,3.58,8,8h0c0,4.42-3.59,8-8,8h0c-4.42,0-8-3.58-8-8Zm-90.23,0c0-4.42,3.58-8,8-8h0c4.42,0,8,3.58,8,8h0c0,4.42-3.58,8-8,8h0c-4.42,0-8-3.58-8-8Zm-90.22,0c0-4.42,3.58-8,8-8h0c4.41,0,7.99,3.58,7.99,8h0c0,4.42-3.58,8-7.99,8h0c-4.42,0-8-3.58-8-8Zm-90.23,0c0-4.42,3.58-8,8-8h0c4.42,0,8,3.58,8,8h0c0,4.42-3.58,8-8,8h0c-4.42,0-8-3.58-8-8Zm-90.23,0c0-4.42,3.58-8,8-8h0c4.42,0,8,3.58,8,8h0c0,4.42-3.58,8-8,8h0c-4.42,0-8-3.58-8-8Zm-90.22,0c0-4.42,3.58-8,8-8h0c4.42,0,8,3.58,8,8h0c0,4.42-3.58,8-8,8h0c-4.42,0-8-3.58-8-8Zm-90.23,0c0-4.42,3.58-8,8-8h0c4.42,0,8,3.58,8,8h0c0,4.42-3.58,8-8,8h0c-4.42,0-8-3.58-8-8Zm-90.23,0c0-4.42,3.59-8,8-8h0c4.42,0,8.01,3.58,8.01,8h0c0,4.42-3.59,8-8.01,8h0c-4.41,0-8-3.58-8-8Zm-90.22,0c0-4.42,3.58-8,8-8h0c4.42,0,8,3.58,8,8h0c0,4.42-3.58,8-8,8h0c-4.42,0-8-3.58-8-8Zm-90.23,0c0-4.42,3.58-8,8-8h0c4.42,0,8,3.58,8,8h0c0,4.42-3.58,8-8,8h0c-4.42,0-8-3.58-8-8Zm-90.22,0c0-4.42,3.58-8,7.99-8h0c4.42,0,8.01,3.58,8.01,8h0c0,4.42-3.59,8-8.01,8h0c-4.41,0-7.99-3.58-7.99-8Zm-90.23,0c0-4.42,3.58-8,8-8h0c4.42,0,8,3.58,8,8h0c0,4.42-3.58,8-8,8h0c-4.42,0-8-3.58-8-8Zm-90.23,0c0-4.42,3.59-8,8-8h0c4.42,0,8,3.58,8,8h0c0,4.42-3.58,8-8,8h0c-4.41,0-8-3.58-8-8Zm-90.22,0c0-4.42,3.58-8,8-8h0c4.41,0,8,3.58,8,8h0c0,4.42-3.59,8-8,8h0c-4.42,0-8-3.58-8-8Zm-90.23,0c0-4.42,3.58-8,8-8h0c4.42,0,8,3.58,8,8h0c0,4.42-3.58,8-8,8h0c-4.42,0-8-3.58-8-8Zm-90.22,0c0-4.42,3.58-8,8-8h0c4.41,0,7.99,3.58,7.99,8h0c0,4.42-3.58,8-7.99,8h0c-4.42,0-8-3.58-8-8Zm-90.23,0c0-4.42,3.58-8,8-8h0c4.42,0,8,3.58,8,8h0c0,4.42-3.58,8-8,8h0c-4.42,0-8-3.58-8-8Zm-90.23,0c0-4.42,3.58-8,8-8h0c4.42,0,8,3.58,8,8h0c0,4.42-3.58,8-8,8h0c-4.42,0-8-3.58-8-8Zm-90.22,0c0-4.42,3.58-8,8-8h0c4.42,0,8,3.58,8,8h0c0,4.42-3.58,8-8,8h0c-4.42,0-8-3.58-8-8Zm-90.23,0c0-4.42,3.58-8,8-8h0c4.42,0,8,3.58,8,8h0c0,4.42-3.58,8-8,8h0c-4.42,0-8-3.58-8-8Zm-90.23,0c0-4.42,3.58-8,8-8h0c4.42,0,8,3.58,8,8h0c0,4.42-3.58,8-8,8h0c-4.42,0-8-3.58-8-8Zm-90.22,0c0-4.42,3.58-8,8-8h0c4.42,0,8,3.58,8,8h0c0,4.42-3.58,8-8,8h0c-4.42,0-8-3.58-8-8Zm-90.23,0c0-4.42,3.58-8,8-8h0c4.42,0,8,3.58,8,8h0c0,4.42-3.58,8-8,8h0c-4.42,0-8-3.58-8-8Zm-90.23,0c0-4.42,3.59-8,8-8h0c4.42,0,8,3.58,8,8h0c0,4.42-3.58,8-8,8h0c-4.41,0-8-3.58-8-8Zm-90.22,0c0-4.42,3.58-8,8-8h0c4.42,0,8,3.58,8,8h0c0,4.42-3.58,8-8,8h0c-4.42,0-8-3.58-8-8Zm-90.23,0c0-4.42,3.59-8,8-8h0c4.42,0,8,3.58,8,8h0c0,4.42-3.58,8-8,8h0c-4.41,0-8-3.58-8-8Zm-90.22,0c0-4.42,3.58-8,8-8h0c4.41,0,8,3.58,8,8h0c0,4.42-3.59,8-8,8h0c-4.42,0-8-3.58-8-8Z"/><path class="uuid-53ebfd68-cc55-473b-b97a-24e3ff4299bd" d="M3165.92,1546c-.52,0-1.05-.05-1.56-.16-.51-.1-1.02-.25-1.5-.45-.48-.2-.95-.45-1.38-.74-.44-.29-.85-.62-1.22-.99-1.49-1.49-2.34-3.56-2.34-5.66,0-.52,.05-1.05,.16-1.56,.1-.51,.25-1.02,.45-1.5,.2-.48,.45-.95,.74-1.38,.29-.44,.62-.85,.99-1.22,1.86-1.86,4.63-2.71,7.22-2.19,.51,.11,1.02,.26,1.5,.46,.48,.2,.95,.45,1.38,.74,.44,.29,.85,.62,1.21,.99,.37,.37,.71,.78,1,1.22,.29,.43,.54,.9,.74,1.38,.2,.48,.35,.99,.45,1.5,.11,.51,.16,1.04,.16,1.56s-.05,1.05-.16,1.56c-.1,.51-.25,1.02-.45,1.5-.2,.48-.45,.95-.74,1.38-.29,.44-.63,.85-1,1.22-.36,.37-.77,.7-1.21,.99-.43,.29-.9,.54-1.38,.74-.48,.2-.99,.35-1.5,.45-.51,.11-1.04,.16-1.56,.16Z"/></g></g><g><g><path class="uuid-53ebfd68-cc55-473b-b97a-24e3ff4299bd" d="M54,1276c-.52,0-1.05-.05-1.56-.16-.51-.1-1.02-.25-1.5-.45-.48-.2-.95-.45-1.38-.74-.44-.29-.85-.62-1.22-.99-.37-.37-.7-.78-.99-1.22-.29-.43-.54-.9-.74-1.38-.2-.48-.35-.99-.45-1.5-.11-.51-.16-1.04-.16-1.56s.05-1.05,.16-1.56c.1-.52,.25-1.02,.45-1.5,.2-.48,.45-.95,.74-1.38,.29-.44,.62-.85,.99-1.22,.37-.37,.78-.7,1.22-.99,.43-.29,.9-.54,1.38-.74,.48-.2,.99-.35,1.5-.45,2.6-.53,5.36,.33,7.22,2.18,.36,.37,.7,.78,.99,1.22,.29,.43,.54,.9,.74,1.38,.2,.48,.35,.98,.45,1.5,.11,.51,.16,1.04,.16,1.56s-.05,1.05-.16,1.56c-.1,.51-.25,1.02-.45,1.5-.2,.48-.45,.95-.74,1.38-.29,.44-.63,.85-.99,1.22-1.49,1.49-3.56,2.34-5.66,2.34Z"/><path class="uuid-53ebfd68-cc55-473b-b97a-24e3ff4299bd" d="M3113.69,1268c0-4.42,3.58-8,8-8h0c4.42,0,8,3.58,8,8h0c0,4.42-3.58,8-8,8h0c-4.42,0-8-3.58-8-8Zm-90.22,0c0-4.42,3.57-8,8-8h0c4.41,0,7.99,3.58,7.99,8h0c0,4.42-3.58,8-7.99,8h0c-4.43,0-8-3.58-8-8Zm-90.23,0c0-4.42,3.58-8,8-8h0c4.42,0,8,3.58,8,8h0c0,4.42-3.58,8-8,8h0c-4.42,0-8-3.58-8-8Zm-90.23,0c0-4.42,3.58-8,8-8h0c4.42,0,8,3.58,8,8h0c0,4.42-3.58,8-8,8h0c-4.42,0-8-3.58-8-8Zm-90.22,0c0-4.42,3.58-8,8-8h0c4.41,0,8,3.58,8,8h0c0,4.42-3.59,8-8,8h0c-4.42,0-8-3.58-8-8Zm-90.23,0c0-4.42,3.58-8,8-8h0c4.42,0,8,3.58,8,8h0c0,4.42-3.58,8-8,8h0c-4.42,0-8-3.58-8-8Zm-90.23,0c0-4.42,3.58-8,8-8h0c4.42,0,8,3.58,8,8h0c0,4.42-3.58,8-8,8h0c-4.42,0-8-3.58-8-8Zm-90.22,0c0-4.42,3.58-8,8-8h0c4.41,0,8,3.58,8,8h0c0,4.42-3.59,8-8,8h0c-4.42,0-8-3.58-8-8Zm-90.23,0c0-4.42,3.58-8,8-8h0c4.42,0,8,3.58,8,8h0c0,4.42-3.58,8-8,8h0c-4.42,0-8-3.58-8-8Zm-90.23,0c0-4.42,3.59-8,8.01-8h0c4.41,0,7.99,3.58,7.99,8h0c0,4.42-3.58,8-7.99,8h0c-4.42,0-8.01-3.58-8.01-8Zm-90.22,0c0-4.42,3.58-8,8-8h0c4.42,0,8,3.58,8,8h0c0,4.42-3.58,8-8,8h0c-4.42,0-8-3.58-8-8Zm-90.23,0c0-4.42,3.58-8,8-8h0c4.42,0,8,3.58,8,8h0c0,4.42-3.58,8-8,8h0c-4.42,0-8-3.58-8-8Zm-90.22,0c0-4.42,3.58-8,8-8h0c4.41,0,8,3.58,8,8h0c0,4.42-3.59,8-8,8h0c-4.42,0-8-3.58-8-8Zm-90.23,0c0-4.42,3.58-8,8-8h0c4.42,0,8,3.58,8,8h0c0,4.42-3.58,8-8,8h0c-4.42,0-8-3.58-8-8Zm-90.23,0c0-4.42,3.59-8,8-8h0c4.42,0,8,3.58,8,8h0c0,4.42-3.58,8-8,8h0c-4.41,0-8-3.58-8-8Zm-90.22,0c0-4.42,3.58-8,8-8h0c4.42,0,8,3.58,8,8h0c0,4.42-3.58,8-8,8h0c-4.42,0-8-3.58-8-8Zm-90.23,0c0-4.42,3.58-8,8-8h0c4.42,0,8,3.58,8,8h0c0,4.42-3.58,8-8,8h0c-4.42,0-8-3.58-8-8Zm-90.23,0c0-4.42,3.59-8,8.01-8h0c4.41,0,8,3.58,8,8h0c0,4.42-3.59,8-8,8h0c-4.42,0-8.01-3.58-8.01-8Zm-90.22,0c0-4.42,3.58-8,8-8h0c4.42,0,8,3.58,8,8h0c0,4.42-3.58,8-8,8h0c-4.42,0-8-3.58-8-8Zm-90.23,0c0-4.42,3.59-8,8-8h0c4.42,0,8,3.58,8,8h0c0,4.42-3.58,8-8,8h0c-4.41,0-8-3.58-8-8Zm-90.22,0c0-4.42,3.58-8,8-8h0c4.42,0,8,3.58,8,8h0c0,4.42-3.58,8-8,8h0c-4.42,0-8-3.58-8-8Zm-90.23,0c0-4.42,3.58-8,8-8h0c4.42,0,8,3.58,8,8h0c0,4.42-3.58,8-8,8h0c-4.42,0-8-3.58-8-8Zm-90.23,0c0-4.42,3.59-8,8-8h0c4.42,0,8,3.58,8,8h0c0,4.42-3.58,8-8,8h0c-4.41,0-8-3.58-8-8Zm-90.22,0c0-4.42,3.58-8,8-8h0c4.42,0,8,3.58,8,8h0c0,4.42-3.58,8-8,8h0c-4.42,0-8-3.58-8-8Zm-90.23,0c0-4.42,3.58-8,8-8h0c4.42,0,8,3.58,8,8h0c0,4.42-3.58,8-8,8h0c-4.42,0-8-3.58-8-8Zm-90.22,0c0-4.42,3.58-8,8-8h0c4.41,0,8,3.58,8,8h0c0,4.42-3.59,8-8,8h0c-4.42,0-8-3.58-8-8Zm-90.23,0c0-4.42,3.58-8,8-8h0c4.42,0,8,3.58,8,8h0c0,4.42-3.58,8-8,8h0c-4.42,0-8-3.58-8-8Zm-90.23,0c0-4.42,3.59-8,8-8h0c4.42,0,8,3.58,8,8h0c0,4.42-3.58,8-8,8h0c-4.41,0-8-3.58-8-8Zm-90.22,0c0-4.42,3.58-8,8-8h0c4.42,0,8,3.58,8,8h0c0,4.42-3.58,8-8,8h0c-4.42,0-8-3.58-8-8Zm-90.23,0c0-4.42,3.58-8,8-8h0c4.42,0,8,3.58,8,8h0c0,4.42-3.58,8-8,8h0c-4.42,0-8-3.58-8-8Zm-90.22,0c0-4.42,3.58-8,7.99-8h0c4.42,0,8.01,3.58,8.01,8h0c0,4.42-3.59,8-8.01,8h0c-4.41,0-7.99-3.58-7.99-8Zm-90.23,0c0-4.42,3.58-8,8-8h0c4.42,0,8,3.58,8,8h0c0,4.42-3.58,8-8,8h0c-4.42,0-8-3.58-8-8Zm-90.23,0c0-4.42,3.58-8,8-8h0c4.42,0,8,3.58,8,8h0c0,4.42-3.58,8-8,8h0c-4.42,0-8-3.58-8-8Zm-90.22,0c0-4.42,3.58-8,8-8h0c4.42,0,8,3.58,8,8h0c0,4.42-3.58,8-8,8h0c-4.42,0-8-3.58-8-8Z"/><path class="uuid-53ebfd68-cc55-473b-b97a-24e3ff4299bd" d="M3211.92,1276c-.52,0-1.05-.05-1.56-.16-.51-.1-1.02-.25-1.5-.45-.48-.2-.95-.45-1.38-.74-.44-.29-.85-.63-1.22-.99-.37-.37-.7-.78-.99-1.22-.29-.43-.54-.9-.74-1.38-.2-.48-.35-.99-.45-1.5-.11-.51-.16-1.04-.16-1.56,0-2.11,.85-4.17,2.34-5.66,.37-.37,.78-.7,1.22-.99,.43-.29,.9-.54,1.38-.74,.48-.2,.99-.35,1.5-.45,2.6-.53,5.36,.32,7.22,2.18,1.49,1.49,2.34,3.55,2.34,5.66,0,.52-.05,1.05-.16,1.56-.1,.51-.25,1.02-.45,1.5-.2,.48-.45,.95-.74,1.38-.29,.44-.62,.85-.99,1.22-1.49,1.48-3.55,2.34-5.66,2.34Z"/></g><g><path class="uuid-53ebfd68-cc55-473b-b97a-24e3ff4299bd" d="M8,1366c-2.1,0-4.17-.85-5.66-2.34-.37-.37-.7-.78-.99-1.22-.29-.43-.54-.9-.74-1.38-.2-.48-.35-.99-.45-1.5-.11-.51-.16-1.04-.16-1.56s.05-1.05,.16-1.56c.1-.52,.25-1.02,.45-1.5,.2-.48,.45-.95,.74-1.38,.29-.44,.62-.85,.99-1.22,.37-.37,.78-.7,1.22-.99,.43-.29,.9-.54,1.38-.74,.48-.2,.99-.35,1.5-.45,1.03-.21,2.09-.21,3.12,0,.51,.1,1.02,.25,1.5,.45,.48,.2,.95,.45,1.38,.74,.44,.29,.85,.62,1.22,.99,.37,.37,.7,.78,.99,1.22,.29,.43,.54,.9,.74,1.38,.2,.48,.35,.98,.45,1.5,.11,.51,.16,1.04,.16,1.56s-.05,1.05-.16,1.56c-.1,.51-.25,1.02-.45,1.5-.2,.48-.45,.95-.74,1.38-.29,.44-.62,.85-.99,1.22-1.49,1.49-3.56,2.34-5.66,2.34Z"/><path class="uuid-53ebfd68-cc55-473b-b97a-24e3ff4299bd" d="M3067.69,1358c0-4.42,3.58-8,8-8h0c4.42,0,8,3.58,8,8h0c0,4.42-3.58,8-8,8h0c-4.42,0-8-3.58-8-8Zm-90.23,0c0-4.42,3.59-8,8-8h0c4.42,0,8,3.58,8,8h0c0,4.42-3.58,8-8,8h0c-4.41,0-8-3.58-8-8Zm-90.22,0c0-4.42,3.58-8,8-8h0c4.42,0,8,3.58,8,8h0c0,4.42-3.58,8-8,8h0c-4.42,0-8-3.58-8-8Zm-90.23,0c0-4.42,3.58-8,8-8h0c4.42,0,8,3.58,8,8h0c0,4.42-3.58,8-8,8h0c-4.42,0-8-3.58-8-8Zm-90.22,0c0-4.42,3.58-8,8-8h0c4.41,0,7.99,3.58,7.99,8h0c0,4.42-3.58,8-7.99,8h0c-4.42,0-8-3.58-8-8Zm-90.23,0c0-4.42,3.58-8,8-8h0c4.42,0,8,3.58,8,8h0c0,4.42-3.58,8-8,8h0c-4.42,0-8-3.58-8-8Zm-90.23,0c0-4.42,3.59-8,8-8h0c4.42,0,8,3.58,8,8h0c0,4.42-3.58,8-8,8h0c-4.41,0-8-3.58-8-8Zm-90.22,0c0-4.42,3.58-8,8-8h0c4.41,0,8,3.58,8,8h0c0,4.42-3.59,8-8,8h0c-4.42,0-8-3.58-8-8Zm-90.23,0c0-4.42,3.58-8,8-8h0c4.42,0,8,3.58,8,8h0c0,4.42-3.58,8-8,8h0c-4.42,0-8-3.58-8-8Zm-90.22,0c0-4.42,3.58-8,8-8h0c4.41,0,7.99,3.58,7.99,8h0c0,4.42-3.58,8-7.99,8h0c-4.42,0-8-3.58-8-8Zm-90.23,0c0-4.42,3.58-8,8-8h0c4.42,0,8,3.58,8,8h0c0,4.42-3.58,8-8,8h0c-4.42,0-8-3.58-8-8Zm-90.23,0c0-4.42,3.58-8,8-8h0c4.42,0,8,3.58,8,8h0c0,4.42-3.58,8-8,8h0c-4.42,0-8-3.58-8-8Zm-90.22,0c0-4.42,3.58-8,8-8h0c4.42,0,8,3.58,8,8h0c0,4.42-3.58,8-8,8h0c-4.42,0-8-3.58-8-8Zm-90.23,0c0-4.42,3.58-8,8-8h0c4.42,0,8,3.58,8,8h0c0,4.42-3.58,8-8,8h0c-4.42,0-8-3.58-8-8Zm-90.23,0c0-4.42,3.59-8,8-8h0c4.42,0,8.01,3.58,8.01,8h0c0,4.42-3.59,8-8.01,8h0c-4.41,0-8-3.58-8-8Zm-90.22,0c0-4.42,3.58-8,8-8h0c4.42,0,8,3.58,8,8h0c0,4.42-3.58,8-8,8h0c-4.42,0-8-3.58-8-8Zm-90.23,0c0-4.42,3.58-8,8-8h0c4.42,0,8,3.58,8,8h0c0,4.42-3.58,8-8,8h0c-4.42,0-8-3.58-8-8Zm-90.22,0c0-4.42,3.58-8,7.99-8h0c4.42,0,8.01,3.58,8.01,8h0c0,4.42-3.59,8-8.01,8h0c-4.41,0-7.99-3.58-7.99-8Zm-90.23,0c0-4.42,3.58-8,8-8h0c4.42,0,8,3.58,8,8h0c0,4.42-3.58,8-8,8h0c-4.42,0-8-3.58-8-8Zm-90.23,0c0-4.42,3.59-8,8-8h0c4.42,0,8,3.58,8,8h0c0,4.42-3.58,8-8,8h0c-4.41,0-8-3.58-8-8Zm-90.22,0c0-4.42,3.58-8,8-8h0c4.41,0,8,3.58,8,8h0c0,4.42-3.59,8-8,8h0c-4.42,0-8-3.58-8-8Zm-90.23,0c0-4.42,3.58-8,8-8h0c4.42,0,8,3.58,8,8h0c0,4.42-3.58,8-8,8h0c-4.42,0-8-3.58-8-8Zm-90.22,0c0-4.42,3.58-8,8-8h0c4.41,0,7.99,3.58,7.99,8h0c0,4.42-3.58,8-7.99,8h0c-4.42,0-8-3.58-8-8Zm-90.23,0c0-4.42,3.58-8,8-8h0c4.42,0,8,3.58,8,8h0c0,4.42-3.58,8-8,8h0c-4.42,0-8-3.58-8-8Zm-90.23,0c0-4.42,3.58-8,8-8h0c4.42,0,8,3.58,8,8h0c0,4.42-3.58,8-8,8h0c-4.42,0-8-3.58-8-8Zm-90.22,0c0-4.42,3.58-8,8-8h0c4.42,0,8,3.58,8,8h0c0,4.42-3.58,8-8,8h0c-4.42,0-8-3.58-8-8Zm-90.23,0c0-4.42,3.58-8,8-8h0c4.42,0,8,3.58,8,8h0c0,4.42-3.58,8-8,8h0c-4.42,0-8-3.58-8-8Zm-90.23,0c0-4.42,3.58-8,8-8h0c4.42,0,8,3.58,8,8h0c0,4.42-3.58,8-8,8h0c-4.42,0-8-3.58-8-8Zm-90.22,0c0-4.42,3.58-8,8-8h0c4.42,0,8,3.58,8,8h0c0,4.42-3.58,8-8,8h0c-4.42,0-8-3.58-8-8Zm-90.23,0c0-4.42,3.58-8,8-8h0c4.42,0,8,3.58,8,8h0c0,4.42-3.58,8-8,8h0c-4.42,0-8-3.58-8-8Zm-90.23,0c0-4.42,3.59-8,8-8h0c4.42,0,8,3.58,8,8h0c0,4.42-3.58,8-8,8h0c-4.41,0-8-3.58-8-8Zm-90.22,0c0-4.42,3.58-8,8-8h0c4.42,0,8,3.58,8,8h0c0,4.42-3.58,8-8,8h0c-4.42,0-8-3.58-8-8Zm-90.23,0c0-4.42,3.59-8,8-8h0c4.42,0,8,3.58,8,8h0c0,4.42-3.58,8-8,8h0c-4.41,0-8-3.58-8-8Zm-90.22,0c0-4.42,3.58-8,8-8h0c4.41,0,8,3.58,8,8h0c0,4.42-3.59,8-8,8h0c-4.42,0-8-3.58-8-8Z"/><path class="uuid-53ebfd68-cc55-473b-b97a-24e3ff4299bd" d="M3165.92,1366c-.52,0-1.05-.05-1.56-.16-.51-.1-1.02-.25-1.5-.45-.48-.2-.95-.45-1.38-.74-.44-.29-.85-.62-1.22-.99-1.49-1.49-2.34-3.56-2.34-5.66,0-.52,.05-1.05,.16-1.56,.1-.51,.25-1.02,.45-1.5,.2-.48,.45-.95,.74-1.38,.29-.44,.62-.85,.99-1.22,1.86-1.86,4.63-2.71,7.22-2.19,.51,.11,1.02,.26,1.5,.46,.48,.2,.95,.45,1.38,.74,.44,.29,.85,.62,1.21,.99,.37,.37,.71,.78,1,1.22,.29,.43,.54,.9,.74,1.38,.2,.48,.35,.99,.45,1.5,.11,.51,.16,1.04,.16,1.56,0,2.1-.85,4.17-2.35,5.66-.36,.37-.77,.7-1.21,.99-.43,.29-.9,.54-1.38,.74-.48,.2-.99,.35-1.5,.45-.51,.11-1.04,.16-1.56,.16Z"/></g></g><g><g><path class="uuid-53ebfd68-cc55-473b-b97a-24e3ff4299bd" d="M54,1096c-.52,0-1.05-.05-1.56-.16-.51-.1-1.02-.25-1.5-.45-.48-.2-.95-.45-1.38-.74-.44-.29-.85-.63-1.22-1-1.49-1.48-2.34-3.55-2.34-5.65,0-.52,.05-1.05,.16-1.56,.1-.51,.25-1.02,.45-1.5,.2-.48,.45-.95,.74-1.38,.29-.44,.62-.85,.99-1.22,.37-.37,.78-.7,1.22-.99,.43-.29,.9-.54,1.38-.74,.48-.2,.99-.35,1.5-.45,2.6-.53,5.36,.32,7.22,2.18,.36,.37,.7,.78,.99,1.22,.29,.43,.54,.9,.74,1.38,.2,.48,.35,.99,.45,1.5,.11,.51,.16,1.04,.16,1.56,0,2.11-.85,4.17-2.34,5.65-1.49,1.49-3.55,2.35-5.66,2.35Z"/><path class="uuid-53ebfd68-cc55-473b-b97a-24e3ff4299bd" d="M3113.69,1088c0-4.42,3.58-8,8-8h0c4.42,0,8,3.58,8,8h0c0,4.42-3.58,8-8,8h0c-4.42,0-8-3.58-8-8Zm-90.22,0c0-4.42,3.57-8,8-8h0c4.41,0,7.99,3.58,7.99,8h0c0,4.42-3.58,8-7.99,8h0c-4.43,0-8-3.58-8-8Zm-90.23,0c0-4.42,3.58-8,8-8h0c4.42,0,8,3.58,8,8h0c0,4.42-3.58,8-8,8h0c-4.42,0-8-3.58-8-8Zm-90.23,0c0-4.42,3.58-8,8-8h0c4.42,0,8,3.58,8,8h0c0,4.42-3.58,8-8,8h0c-4.42,0-8-3.58-8-8Zm-90.22,0c0-4.42,3.58-8,8-8h0c4.41,0,8,3.58,8,8h0c0,4.42-3.59,8-8,8h0c-4.42,0-8-3.58-8-8Zm-90.23,0c0-4.42,3.58-8,8-8h0c4.42,0,8,3.58,8,8h0c0,4.42-3.58,8-8,8h0c-4.42,0-8-3.58-8-8Zm-90.23,0c0-4.42,3.58-8,8-8h0c4.42,0,8,3.58,8,8h0c0,4.42-3.58,8-8,8h0c-4.42,0-8-3.58-8-8Zm-90.22,0c0-4.42,3.58-8,8-8h0c4.41,0,8,3.58,8,8h0c0,4.42-3.59,8-8,8h0c-4.42,0-8-3.58-8-8Zm-90.23,0c0-4.42,3.58-8,8-8h0c4.42,0,8,3.58,8,8h0c0,4.42-3.58,8-8,8h0c-4.42,0-8-3.58-8-8Zm-90.23,0c0-4.42,3.59-8,8.01-8h0c4.41,0,7.99,3.58,7.99,8h0c0,4.42-3.58,8-7.99,8h0c-4.42,0-8.01-3.58-8.01-8Zm-90.22,0c0-4.42,3.58-8,8-8h0c4.42,0,8,3.58,8,8h0c0,4.42-3.58,8-8,8h0c-4.42,0-8-3.58-8-8Zm-90.23,0c0-4.42,3.58-8,8-8h0c4.42,0,8,3.58,8,8h0c0,4.42-3.58,8-8,8h0c-4.42,0-8-3.58-8-8Zm-90.22,0c0-4.42,3.58-8,8-8h0c4.41,0,8,3.58,8,8h0c0,4.42-3.59,8-8,8h0c-4.42,0-8-3.58-8-8Zm-90.23,0c0-4.42,3.58-8,8-8h0c4.42,0,8,3.58,8,8h0c0,4.42-3.58,8-8,8h0c-4.42,0-8-3.58-8-8Zm-90.23,0c0-4.42,3.59-8,8-8h0c4.42,0,8,3.58,8,8h0c0,4.42-3.58,8-8,8h0c-4.41,0-8-3.58-8-8Zm-90.22,0c0-4.42,3.58-8,8-8h0c4.42,0,8,3.58,8,8h0c0,4.42-3.58,8-8,8h0c-4.42,0-8-3.58-8-8Zm-90.23,0c0-4.42,3.58-8,8-8h0c4.42,0,8,3.58,8,8h0c0,4.42-3.58,8-8,8h0c-4.42,0-8-3.58-8-8Zm-90.23,0c0-4.42,3.59-8,8.01-8h0c4.41,0,8,3.58,8,8h0c0,4.42-3.59,8-8,8h0c-4.42,0-8.01-3.58-8.01-8Zm-90.22,0c0-4.42,3.58-8,8-8h0c4.42,0,8,3.58,8,8h0c0,4.42-3.58,8-8,8h0c-4.42,0-8-3.58-8-8Zm-90.23,0c0-4.42,3.59-8,8-8h0c4.42,0,8,3.58,8,8h0c0,4.42-3.58,8-8,8h0c-4.41,0-8-3.58-8-8Zm-90.22,0c0-4.42,3.58-8,8-8h0c4.42,0,8,3.58,8,8h0c0,4.42-3.58,8-8,8h0c-4.42,0-8-3.58-8-8Zm-90.23,0c0-4.42,3.58-8,8-8h0c4.42,0,8,3.58,8,8h0c0,4.42-3.58,8-8,8h0c-4.42,0-8-3.58-8-8Zm-90.23,0c0-4.42,3.59-8,8-8h0c4.42,0,8,3.58,8,8h0c0,4.42-3.58,8-8,8h0c-4.41,0-8-3.58-8-8Zm-90.22,0c0-4.42,3.58-8,8-8h0c4.42,0,8,3.58,8,8h0c0,4.42-3.58,8-8,8h0c-4.42,0-8-3.58-8-8Zm-90.23,0c0-4.42,3.58-8,8-8h0c4.42,0,8,3.58,8,8h0c0,4.42-3.58,8-8,8h0c-4.42,0-8-3.58-8-8Zm-90.22,0c0-4.42,3.58-8,8-8h0c4.41,0,8,3.58,8,8h0c0,4.42-3.59,8-8,8h0c-4.42,0-8-3.58-8-8Zm-90.23,0c0-4.42,3.58-8,8-8h0c4.42,0,8,3.58,8,8h0c0,4.42-3.58,8-8,8h0c-4.42,0-8-3.58-8-8Zm-90.23,0c0-4.42,3.59-8,8-8h0c4.42,0,8,3.58,8,8h0c0,4.42-3.58,8-8,8h0c-4.41,0-8-3.58-8-8Zm-90.22,0c0-4.42,3.58-8,8-8h0c4.42,0,8,3.58,8,8h0c0,4.42-3.58,8-8,8h0c-4.42,0-8-3.58-8-8Zm-90.23,0c0-4.42,3.58-8,8-8h0c4.42,0,8,3.58,8,8h0c0,4.42-3.58,8-8,8h0c-4.42,0-8-3.58-8-8Zm-90.22,0c0-4.42,3.58-8,7.99-8h0c4.42,0,8.01,3.58,8.01,8h0c0,4.42-3.59,8-8.01,8h0c-4.41,0-7.99-3.58-7.99-8Zm-90.23,0c0-4.42,3.58-8,8-8h0c4.42,0,8,3.58,8,8h0c0,4.42-3.58,8-8,8h0c-4.42,0-8-3.58-8-8Zm-90.23,0c0-4.42,3.58-8,8-8h0c4.42,0,8,3.58,8,8h0c0,4.42-3.58,8-8,8h0c-4.42,0-8-3.58-8-8Zm-90.22,0c0-4.42,3.58-8,8-8h0c4.42,0,8,3.58,8,8h0c0,4.42-3.58,8-8,8h0c-4.42,0-8-3.58-8-8Z"/><path class="uuid-53ebfd68-cc55-473b-b97a-24e3ff4299bd" d="M3211.92,1096c-.52,0-1.05-.05-1.56-.16-.51-.1-1.02-.25-1.5-.45-.48-.2-.95-.45-1.38-.74-.44-.29-.85-.63-1.22-.99-1.49-1.49-2.34-3.56-2.34-5.66,0-.52,.05-1.05,.16-1.56,.1-.52,.25-1.02,.45-1.5,.2-.48,.45-.95,.74-1.38,.29-.44,.62-.85,.99-1.22,.37-.37,.78-.7,1.22-.99,.43-.29,.9-.54,1.38-.74,.48-.2,.99-.35,1.5-.45,2.6-.53,5.36,.32,7.22,2.18,.37,.37,.7,.78,.99,1.22,.29,.43,.54,.9,.74,1.38,.2,.48,.35,.98,.45,1.5,.11,.51,.16,1.04,.16,1.56,0,2.1-.85,4.17-2.34,5.66-1.49,1.49-3.55,2.34-5.66,2.34Z"/></g><g><path class="uuid-53ebfd68-cc55-473b-b97a-24e3ff4299bd" d="M8,1186c-2.11,0-4.17-.85-5.66-2.34-.37-.37-.7-.78-.99-1.22-.29-.43-.54-.9-.74-1.38-.2-.48-.35-.99-.45-1.5-.11-.51-.16-1.04-.16-1.56s.05-1.05,.16-1.56c.1-.51,.25-1.02,.45-1.5,.2-.48,.45-.95,.74-1.38,.29-.44,.62-.85,.99-1.22,.37-.37,.78-.7,1.22-.99,.43-.29,.9-.54,1.38-.74,.48-.2,.99-.35,1.5-.45,2.6-.53,5.36,.33,7.22,2.18,.37,.37,.7,.78,.99,1.22,.29,.43,.54,.9,.74,1.38,.2,.48,.35,.99,.45,1.5,.11,.51,.16,1.04,.16,1.56s-.05,1.05-.16,1.56c-.1,.51-.25,1.02-.45,1.5-.2,.48-.45,.95-.74,1.38-.29,.44-.62,.85-.99,1.22-1.49,1.49-3.55,2.34-5.66,2.34Z"/><path class="uuid-53ebfd68-cc55-473b-b97a-24e3ff4299bd" d="M3067.69,1178c0-4.42,3.58-8,8-8h0c4.42,0,8,3.58,8,8h0c0,4.42-3.58,8-8,8h0c-4.42,0-8-3.58-8-8Zm-90.23,0c0-4.42,3.59-8,8-8h0c4.42,0,8,3.58,8,8h0c0,4.42-3.58,8-8,8h0c-4.41,0-8-3.58-8-8Zm-90.22,0c0-4.42,3.58-8,8-8h0c4.42,0,8,3.58,8,8h0c0,4.42-3.58,8-8,8h0c-4.42,0-8-3.58-8-8Zm-90.23,0c0-4.42,3.58-8,8-8h0c4.42,0,8,3.58,8,8h0c0,4.42-3.58,8-8,8h0c-4.42,0-8-3.58-8-8Zm-90.22,0c0-4.42,3.58-8,8-8h0c4.41,0,7.99,3.58,7.99,8h0c0,4.42-3.58,8-7.99,8h0c-4.42,0-8-3.58-8-8Zm-90.23,0c0-4.42,3.58-8,8-8h0c4.42,0,8,3.58,8,8h0c0,4.42-3.58,8-8,8h0c-4.42,0-8-3.58-8-8Zm-90.23,0c0-4.42,3.59-8,8-8h0c4.42,0,8,3.58,8,8h0c0,4.42-3.58,8-8,8h0c-4.41,0-8-3.58-8-8Zm-90.22,0c0-4.42,3.58-8,8-8h0c4.41,0,8,3.58,8,8h0c0,4.42-3.59,8-8,8h0c-4.42,0-8-3.58-8-8Zm-90.23,0c0-4.42,3.58-8,8-8h0c4.42,0,8,3.58,8,8h0c0,4.42-3.58,8-8,8h0c-4.42,0-8-3.58-8-8Zm-90.22,0c0-4.42,3.58-8,8-8h0c4.41,0,7.99,3.58,7.99,8h0c0,4.42-3.58,8-7.99,8h0c-4.42,0-8-3.58-8-8Zm-90.23,0c0-4.42,3.58-8,8-8h0c4.42,0,8,3.58,8,8h0c0,4.42-3.58,8-8,8h0c-4.42,0-8-3.58-8-8Zm-90.23,0c0-4.42,3.58-8,8-8h0c4.42,0,8,3.58,8,8h0c0,4.42-3.58,8-8,8h0c-4.42,0-8-3.58-8-8Zm-90.22,0c0-4.42,3.58-8,8-8h0c4.42,0,8,3.58,8,8h0c0,4.42-3.58,8-8,8h0c-4.42,0-8-3.58-8-8Zm-90.23,0c0-4.42,3.58-8,8-8h0c4.42,0,8,3.58,8,8h0c0,4.42-3.58,8-8,8h0c-4.42,0-8-3.58-8-8Zm-90.23,0c0-4.42,3.59-8,8-8h0c4.42,0,8.01,3.58,8.01,8h0c0,4.42-3.59,8-8.01,8h0c-4.41,0-8-3.58-8-8Zm-90.22,0c0-4.42,3.58-8,8-8h0c4.42,0,8,3.58,8,8h0c0,4.42-3.58,8-8,8h0c-4.42,0-8-3.58-8-8Zm-90.23,0c0-4.42,3.58-8,8-8h0c4.42,0,8,3.58,8,8h0c0,4.42-3.58,8-8,8h0c-4.42,0-8-3.58-8-8Zm-90.22,0c0-4.42,3.58-8,7.99-8h0c4.42,0,8.01,3.58,8.01,8h0c0,4.42-3.59,8-8.01,8h0c-4.41,0-7.99-3.58-7.99-8Zm-90.23,0c0-4.42,3.58-8,8-8h0c4.42,0,8,3.58,8,8h0c0,4.42-3.58,8-8,8h0c-4.42,0-8-3.58-8-8Zm-90.23,0c0-4.42,3.59-8,8-8h0c4.42,0,8,3.58,8,8h0c0,4.42-3.58,8-8,8h0c-4.41,0-8-3.58-8-8Zm-90.22,0c0-4.42,3.58-8,8-8h0c4.41,0,8,3.58,8,8h0c0,4.42-3.59,8-8,8h0c-4.42,0-8-3.58-8-8Zm-90.23,0c0-4.42,3.58-8,8-8h0c4.42,0,8,3.58,8,8h0c0,4.42-3.58,8-8,8h0c-4.42,0-8-3.58-8-8Zm-90.22,0c0-4.42,3.58-8,8-8h0c4.41,0,7.99,3.58,7.99,8h0c0,4.42-3.58,8-7.99,8h0c-4.42,0-8-3.58-8-8Zm-90.23,0c0-4.42,3.58-8,8-8h0c4.42,0,8,3.58,8,8h0c0,4.42-3.58,8-8,8h0c-4.42,0-8-3.58-8-8Zm-90.23,0c0-4.42,3.58-8,8-8h0c4.42,0,8,3.58,8,8h0c0,4.42-3.58,8-8,8h0c-4.42,0-8-3.58-8-8Zm-90.22,0c0-4.42,3.58-8,8-8h0c4.42,0,8,3.58,8,8h0c0,4.42-3.58,8-8,8h0c-4.42,0-8-3.58-8-8Zm-90.23,0c0-4.42,3.58-8,8-8h0c4.42,0,8,3.58,8,8h0c0,4.42-3.58,8-8,8h0c-4.42,0-8-3.58-8-8Zm-90.23,0c0-4.42,3.58-8,8-8h0c4.42,0,8,3.58,8,8h0c0,4.42-3.58,8-8,8h0c-4.42,0-8-3.58-8-8Zm-90.22,0c0-4.42,3.58-8,8-8h0c4.42,0,8,3.58,8,8h0c0,4.42-3.58,8-8,8h0c-4.42,0-8-3.58-8-8Zm-90.23,0c0-4.42,3.58-8,8-8h0c4.42,0,8,3.58,8,8h0c0,4.42-3.58,8-8,8h0c-4.42,0-8-3.58-8-8Zm-90.23,0c0-4.42,3.59-8,8-8h0c4.42,0,8,3.58,8,8h0c0,4.42-3.58,8-8,8h0c-4.41,0-8-3.58-8-8Zm-90.22,0c0-4.42,3.58-8,8-8h0c4.42,0,8,3.58,8,8h0c0,4.42-3.58,8-8,8h0c-4.42,0-8-3.58-8-8Zm-90.23,0c0-4.42,3.59-8,8-8h0c4.42,0,8,3.58,8,8h0c0,4.42-3.58,8-8,8h0c-4.41,0-8-3.58-8-8Zm-90.22,0c0-4.42,3.58-8,8-8h0c4.41,0,8,3.58,8,8h0c0,4.42-3.59,8-8,8h0c-4.42,0-8-3.58-8-8Z"/><path class="uuid-53ebfd68-cc55-473b-b97a-24e3ff4299bd" d="M3165.92,1186c-.52,0-1.05-.05-1.56-.16-.51-.1-1.02-.25-1.5-.45-.48-.2-.95-.45-1.38-.74-.44-.29-.85-.62-1.22-.99-1.49-1.49-2.34-3.56-2.34-5.66,0-.52,.05-1.05,.16-1.56,.1-.51,.25-1.02,.45-1.5,.2-.48,.45-.95,.74-1.38,.29-.44,.62-.85,.99-1.22,.37-.37,.78-.7,1.22-.99,.43-.29,.9-.54,1.38-.74,.48-.2,.99-.35,1.5-.45,2.59-.53,5.36,.33,7.21,2.18,.37,.37,.71,.78,1,1.22,.29,.43,.54,.9,.74,1.38,.2,.48,.35,.99,.45,1.5,.11,.51,.16,1.04,.16,1.56,0,2.1-.85,4.17-2.35,5.66-.36,.37-.77,.7-1.21,.99-.43,.29-.9,.54-1.38,.74-.48,.2-.99,.35-1.5,.45-.51,.11-1.04,.16-1.56,.16Z"/></g></g><g><g><path class="uuid-53ebfd68-cc55-473b-b97a-24e3ff4299bd" d="M54,916c-.52,0-1.05-.05-1.56-.16-.51-.1-1.02-.25-1.5-.45-.48-.2-.95-.45-1.38-.74-.44-.29-.85-.63-1.22-.99-.37-.37-.7-.78-.99-1.22-.29-.43-.54-.9-.74-1.38-.2-.48-.35-.99-.45-1.5-.11-.51-.16-1.04-.16-1.56s.05-1.05,.16-1.56c.1-.51,.25-1.02,.45-1.5,.2-.48,.45-.95,.74-1.38,.29-.44,.62-.85,.99-1.22,.37-.37,.78-.7,1.22-.99,.43-.29,.9-.54,1.38-.74,.48-.2,.99-.35,1.5-.45,1.03-.21,2.09-.21,3.12,0,.51,.1,1.02,.25,1.5,.45,.48,.2,.95,.45,1.38,.74,.44,.29,.85,.62,1.22,.99,.37,.37,.7,.78,.99,1.22,.29,.43,.54,.9,.74,1.38,.2,.48,.35,.99,.45,1.5,.11,.51,.16,1.04,.16,1.56s-.05,1.05-.16,1.56c-.1,.51-.25,1.02-.45,1.5-.2,.48-.45,.95-.74,1.38-.29,.44-.63,.85-.99,1.22-.37,.36-.78,.7-1.22,.99-.43,.29-.9,.54-1.38,.74-.48,.2-.99,.35-1.5,.45-.51,.11-1.04,.16-1.56,.16Z"/><path class="uuid-53ebfd68-cc55-473b-b97a-24e3ff4299bd" d="M3113.69,908c0-4.42,3.58-8,8-8h0c4.42,0,8,3.58,8,8h0c0,4.42-3.58,8-8,8h0c-4.42,0-8-3.58-8-8Zm-90.22,0c0-4.42,3.57-8,8-8h0c4.41,0,7.99,3.58,7.99,8h0c0,4.42-3.58,8-7.99,8h0c-4.43,0-8-3.58-8-8Zm-90.23,0c0-4.42,3.58-8,8-8h0c4.42,0,8,3.58,8,8h0c0,4.42-3.58,8-8,8h0c-4.42,0-8-3.58-8-8Zm-90.23,0c0-4.42,3.58-8,8-8h0c4.42,0,8,3.58,8,8h0c0,4.42-3.58,8-8,8h0c-4.42,0-8-3.58-8-8Zm-90.22,0c0-4.42,3.58-8,8-8h0c4.41,0,8,3.58,8,8h0c0,4.42-3.59,8-8,8h0c-4.42,0-8-3.58-8-8Zm-90.23,0c0-4.42,3.58-8,8-8h0c4.42,0,8,3.58,8,8h0c0,4.42-3.58,8-8,8h0c-4.42,0-8-3.58-8-8Zm-90.23,0c0-4.42,3.58-8,8-8h0c4.42,0,8,3.58,8,8h0c0,4.42-3.58,8-8,8h0c-4.42,0-8-3.58-8-8Zm-90.22,0c0-4.42,3.58-8,8-8h0c4.41,0,8,3.58,8,8h0c0,4.42-3.59,8-8,8h0c-4.42,0-8-3.58-8-8Zm-90.23,0c0-4.42,3.58-8,8-8h0c4.42,0,8,3.58,8,8h0c0,4.42-3.58,8-8,8h0c-4.42,0-8-3.58-8-8Zm-90.23,0c0-4.42,3.59-8,8.01-8h0c4.41,0,7.99,3.58,7.99,8h0c0,4.42-3.58,8-7.99,8h0c-4.42,0-8.01-3.58-8.01-8Zm-90.22,0c0-4.42,3.58-8,8-8h0c4.42,0,8,3.58,8,8h0c0,4.42-3.58,8-8,8h0c-4.42,0-8-3.58-8-8Zm-90.23,0c0-4.42,3.58-8,8-8h0c4.42,0,8,3.58,8,8h0c0,4.42-3.58,8-8,8h0c-4.42,0-8-3.58-8-8Zm-90.22,0c0-4.42,3.58-8,8-8h0c4.41,0,8,3.58,8,8h0c0,4.42-3.59,8-8,8h0c-4.42,0-8-3.58-8-8Zm-90.23,0c0-4.42,3.58-8,8-8h0c4.42,0,8,3.58,8,8h0c0,4.42-3.58,8-8,8h0c-4.42,0-8-3.58-8-8Zm-90.23,0c0-4.42,3.59-8,8-8h0c4.42,0,8,3.58,8,8h0c0,4.42-3.58,8-8,8h0c-4.41,0-8-3.58-8-8Zm-90.22,0c0-4.42,3.58-8,8-8h0c4.42,0,8,3.58,8,8h0c0,4.42-3.58,8-8,8h0c-4.42,0-8-3.58-8-8Zm-90.23,0c0-4.42,3.58-8,8-8h0c4.42,0,8,3.58,8,8h0c0,4.42-3.58,8-8,8h0c-4.42,0-8-3.58-8-8Zm-90.23,0c0-4.42,3.59-8,8.01-8h0c4.41,0,8,3.58,8,8h0c0,4.42-3.59,8-8,8h0c-4.42,0-8.01-3.58-8.01-8Zm-90.22,0c0-4.42,3.58-8,8-8h0c4.42,0,8,3.58,8,8h0c0,4.42-3.58,8-8,8h0c-4.42,0-8-3.58-8-8Zm-90.23,0c0-4.42,3.59-8,8-8h0c4.42,0,8,3.58,8,8h0c0,4.42-3.58,8-8,8h0c-4.41,0-8-3.58-8-8Zm-90.22,0c0-4.42,3.58-8,8-8h0c4.42,0,8,3.58,8,8h0c0,4.42-3.58,8-8,8h0c-4.42,0-8-3.58-8-8Zm-90.23,0c0-4.42,3.58-8,8-8h0c4.42,0,8,3.58,8,8h0c0,4.42-3.58,8-8,8h0c-4.42,0-8-3.58-8-8Zm-90.23,0c0-4.42,3.59-8,8-8h0c4.42,0,8,3.58,8,8h0c0,4.42-3.58,8-8,8h0c-4.41,0-8-3.58-8-8Zm-90.22,0c0-4.42,3.58-8,8-8h0c4.42,0,8,3.58,8,8h0c0,4.42-3.58,8-8,8h0c-4.42,0-8-3.58-8-8Zm-90.23,0c0-4.42,3.58-8,8-8h0c4.42,0,8,3.58,8,8h0c0,4.42-3.58,8-8,8h0c-4.42,0-8-3.58-8-8Zm-90.22,0c0-4.42,3.58-8,8-8h0c4.41,0,8,3.58,8,8h0c0,4.42-3.59,8-8,8h0c-4.42,0-8-3.58-8-8Zm-90.23,0c0-4.42,3.58-8,8-8h0c4.42,0,8,3.58,8,8h0c0,4.42-3.58,8-8,8h0c-4.42,0-8-3.58-8-8Zm-90.23,0c0-4.42,3.59-8,8-8h0c4.42,0,8,3.58,8,8h0c0,4.42-3.58,8-8,8h0c-4.41,0-8-3.58-8-8Zm-90.22,0c0-4.42,3.58-8,8-8h0c4.42,0,8,3.58,8,8h0c0,4.42-3.58,8-8,8h0c-4.42,0-8-3.58-8-8Zm-90.23,0c0-4.42,3.58-8,8-8h0c4.42,0,8,3.58,8,8h0c0,4.42-3.58,8-8,8h0c-4.42,0-8-3.58-8-8Zm-90.22,0c0-4.42,3.58-8,7.99-8h0c4.42,0,8.01,3.58,8.01,8h0c0,4.42-3.59,8-8.01,8h0c-4.41,0-7.99-3.58-7.99-8Zm-90.23,0c0-4.42,3.58-8,8-8h0c4.42,0,8,3.58,8,8h0c0,4.42-3.58,8-8,8h0c-4.42,0-8-3.58-8-8Zm-90.23,0c0-4.42,3.58-8,8-8h0c4.42,0,8,3.58,8,8h0c0,4.42-3.58,8-8,8h0c-4.42,0-8-3.58-8-8Zm-90.22,0c0-4.42,3.58-8,8-8h0c4.42,0,8,3.58,8,8h0c0,4.42-3.58,8-8,8h0c-4.42,0-8-3.58-8-8Z"/><path class="uuid-53ebfd68-cc55-473b-b97a-24e3ff4299bd" d="M3211.92,916c-.52,0-1.05-.05-1.56-.16-.51-.1-1.02-.25-1.5-.45-.48-.2-.95-.45-1.38-.74-.44-.29-.85-.62-1.22-.99-1.49-1.49-2.34-3.55-2.34-5.66,0-.52,.05-1.05,.16-1.56,.1-.51,.25-1.02,.45-1.5,.2-.48,.45-.95,.74-1.38,.29-.44,.62-.85,.99-1.22,.37-.37,.78-.7,1.22-.99,.43-.29,.9-.54,1.38-.74,.48-.2,.99-.35,1.5-.45,2.6-.53,5.36,.32,7.22,2.18,.37,.37,.7,.78,.99,1.22,.29,.43,.54,.9,.74,1.38,.2,.48,.35,.99,.45,1.5,.11,.51,.16,1.04,.16,1.56,0,2.11-.85,4.17-2.34,5.66-1.49,1.48-3.55,2.34-5.66,2.34Z"/></g><g><path class="uuid-53ebfd68-cc55-473b-b97a-24e3ff4299bd" d="M8,1006c-.52,0-1.05-.05-1.56-.16-.51-.1-1.02-.25-1.5-.46-.48-.19-.95-.44-1.38-.73-.44-.29-.85-.63-1.22-.99-.36-.37-.7-.78-.99-1.22-.29-.43-.54-.9-.74-1.38-.2-.48-.35-.99-.45-1.5-.11-.51-.16-1.04-.16-1.56s.05-1.05,.16-1.56c.1-.51,.25-1.02,.45-1.5,.2-.48,.45-.95,.74-1.38,.29-.44,.63-.85,.99-1.22,.37-.37,.78-.7,1.22-.99,.43-.29,.9-.54,1.38-.74,.48-.2,.99-.35,1.5-.45,1.03-.21,2.09-.21,3.12,0,.51,.1,1.02,.25,1.5,.45,.48,.2,.95,.45,1.38,.74,.44,.29,.85,.62,1.22,.99,.37,.37,.7,.78,.99,1.22,.29,.43,.54,.9,.74,1.38,.2,.48,.35,.99,.45,1.5,.11,.51,.16,1.04,.16,1.56s-.05,1.05-.16,1.56c-.1,.51-.25,1.02-.45,1.5-.2,.48-.45,.95-.74,1.38-.29,.44-.62,.85-.99,1.22-1.49,1.48-3.55,2.34-5.66,2.34Z"/><path class="uuid-53ebfd68-cc55-473b-b97a-24e3ff4299bd" d="M3067.69,998c0-4.42,3.58-8,8-8h0c4.42,0,8,3.58,8,8h0c0,4.42-3.58,8-8,8h0c-4.42,0-8-3.58-8-8Zm-90.23,0c0-4.42,3.59-8,8-8h0c4.42,0,8,3.58,8,8h0c0,4.42-3.58,8-8,8h0c-4.41,0-8-3.58-8-8Zm-90.22,0c0-4.42,3.58-8,8-8h0c4.42,0,8,3.58,8,8h0c0,4.42-3.58,8-8,8h0c-4.42,0-8-3.58-8-8Zm-90.23,0c0-4.42,3.58-8,8-8h0c4.42,0,8,3.58,8,8h0c0,4.42-3.58,8-8,8h0c-4.42,0-8-3.58-8-8Zm-90.22,0c0-4.42,3.58-8,8-8h0c4.41,0,7.99,3.58,7.99,8h0c0,4.42-3.58,8-7.99,8h0c-4.42,0-8-3.58-8-8Zm-90.23,0c0-4.42,3.58-8,8-8h0c4.42,0,8,3.58,8,8h0c0,4.42-3.58,8-8,8h0c-4.42,0-8-3.58-8-8Zm-90.23,0c0-4.42,3.59-8,8-8h0c4.42,0,8,3.58,8,8h0c0,4.42-3.58,8-8,8h0c-4.41,0-8-3.58-8-8Zm-90.22,0c0-4.42,3.58-8,8-8h0c4.41,0,8,3.58,8,8h0c0,4.42-3.59,8-8,8h0c-4.42,0-8-3.58-8-8Zm-90.23,0c0-4.42,3.58-8,8-8h0c4.42,0,8,3.58,8,8h0c0,4.42-3.58,8-8,8h0c-4.42,0-8-3.58-8-8Zm-90.22,0c0-4.42,3.58-8,8-8h0c4.41,0,7.99,3.58,7.99,8h0c0,4.42-3.58,8-7.99,8h0c-4.42,0-8-3.58-8-8Zm-90.23,0c0-4.42,3.58-8,8-8h0c4.42,0,8,3.58,8,8h0c0,4.42-3.58,8-8,8h0c-4.42,0-8-3.58-8-8Zm-90.23,0c0-4.42,3.58-8,8-8h0c4.42,0,8,3.58,8,8h0c0,4.42-3.58,8-8,8h0c-4.42,0-8-3.58-8-8Zm-90.22,0c0-4.42,3.58-8,8-8h0c4.42,0,8,3.58,8,8h0c0,4.42-3.58,8-8,8h0c-4.42,0-8-3.58-8-8Zm-90.23,0c0-4.42,3.58-8,8-8h0c4.42,0,8,3.58,8,8h0c0,4.42-3.58,8-8,8h0c-4.42,0-8-3.58-8-8Zm-90.23,0c0-4.42,3.59-8,8-8h0c4.42,0,8.01,3.58,8.01,8h0c0,4.42-3.59,8-8.01,8h0c-4.41,0-8-3.58-8-8Zm-90.22,0c0-4.42,3.58-8,8-8h0c4.42,0,8,3.58,8,8h0c0,4.42-3.58,8-8,8h0c-4.42,0-8-3.58-8-8Zm-90.23,0c0-4.42,3.58-8,8-8h0c4.42,0,8,3.58,8,8h0c0,4.42-3.58,8-8,8h0c-4.42,0-8-3.58-8-8Zm-90.22,0c0-4.42,3.58-8,7.99-8h0c4.42,0,8.01,3.58,8.01,8h0c0,4.42-3.59,8-8.01,8h0c-4.41,0-7.99-3.58-7.99-8Zm-90.23,0c0-4.42,3.58-8,8-8h0c4.42,0,8,3.58,8,8h0c0,4.42-3.58,8-8,8h0c-4.42,0-8-3.58-8-8Zm-90.23,0c0-4.42,3.59-8,8-8h0c4.42,0,8,3.58,8,8h0c0,4.42-3.58,8-8,8h0c-4.41,0-8-3.58-8-8Zm-90.22,0c0-4.42,3.58-8,8-8h0c4.41,0,8,3.58,8,8h0c0,4.42-3.59,8-8,8h0c-4.42,0-8-3.58-8-8Zm-90.23,0c0-4.42,3.58-8,8-8h0c4.42,0,8,3.58,8,8h0c0,4.42-3.58,8-8,8h0c-4.42,0-8-3.58-8-8Zm-90.22,0c0-4.42,3.58-8,8-8h0c4.41,0,7.99,3.58,7.99,8h0c0,4.42-3.58,8-7.99,8h0c-4.42,0-8-3.58-8-8Zm-90.23,0c0-4.42,3.58-8,8-8h0c4.42,0,8,3.58,8,8h0c0,4.42-3.58,8-8,8h0c-4.42,0-8-3.58-8-8Zm-90.23,0c0-4.42,3.58-8,8-8h0c4.42,0,8,3.58,8,8h0c0,4.42-3.58,8-8,8h0c-4.42,0-8-3.58-8-8Zm-90.22,0c0-4.42,3.58-8,8-8h0c4.42,0,8,3.58,8,8h0c0,4.42-3.58,8-8,8h0c-4.42,0-8-3.58-8-8Zm-90.23,0c0-4.42,3.58-8,8-8h0c4.42,0,8,3.58,8,8h0c0,4.42-3.58,8-8,8h0c-4.42,0-8-3.58-8-8Zm-90.23,0c0-4.42,3.58-8,8-8h0c4.42,0,8,3.58,8,8h0c0,4.42-3.58,8-8,8h0c-4.42,0-8-3.58-8-8Zm-90.22,0c0-4.42,3.58-8,8-8h0c4.42,0,8,3.58,8,8h0c0,4.42-3.58,8-8,8h0c-4.42,0-8-3.58-8-8Zm-90.23,0c0-4.42,3.58-8,8-8h0c4.42,0,8,3.58,8,8h0c0,4.42-3.58,8-8,8h0c-4.42,0-8-3.58-8-8Zm-90.23,0c0-4.42,3.59-8,8-8h0c4.42,0,8,3.58,8,8h0c0,4.42-3.58,8-8,8h0c-4.41,0-8-3.58-8-8Zm-90.22,0c0-4.42,3.58-8,8-8h0c4.42,0,8,3.58,8,8h0c0,4.42-3.58,8-8,8h0c-4.42,0-8-3.58-8-8Zm-90.23,0c0-4.42,3.59-8,8-8h0c4.42,0,8,3.58,8,8h0c0,4.42-3.58,8-8,8h0c-4.41,0-8-3.58-8-8Zm-90.22,0c0-4.42,3.58-8,8-8h0c4.41,0,8,3.58,8,8h0c0,4.42-3.59,8-8,8h0c-4.42,0-8-3.58-8-8Z"/><path class="uuid-53ebfd68-cc55-473b-b97a-24e3ff4299bd" d="M3165.92,1006c-.52,0-1.05-.05-1.56-.16-.51-.1-1.02-.25-1.5-.45-.48-.2-.95-.45-1.38-.74-.44-.29-.85-.62-1.22-.99-1.49-1.49-2.34-3.56-2.34-5.66,0-.52,.05-1.05,.16-1.56,.1-.51,.25-1.02,.45-1.5,.2-.48,.45-.95,.74-1.38,.29-.44,.62-.85,.99-1.22,.37-.37,.78-.7,1.22-.99,.43-.29,.9-.54,1.38-.74,.48-.2,.99-.35,1.5-.45,2.59-.53,5.36,.33,7.21,2.18,.37,.37,.71,.78,1,1.22,.29,.43,.54,.9,.74,1.38,.2,.48,.35,.99,.45,1.5,.11,.51,.16,1.04,.16,1.56,0,2.1-.85,4.17-2.35,5.66-.36,.37-.77,.7-1.21,.99-.43,.29-.9,.54-1.38,.74-.48,.2-.99,.35-1.5,.45-.51,.11-1.04,.16-1.56,.16Z"/></g></g><g><g><path class="uuid-53ebfd68-cc55-473b-b97a-24e3ff4299bd" d="M54,736c-.52,0-1.05-.05-1.56-.16-.51-.1-1.02-.25-1.5-.45-.48-.2-.95-.45-1.38-.74-.44-.29-.85-.63-1.22-.99-.37-.37-.7-.78-.99-1.22-.29-.43-.54-.9-.74-1.38-.2-.48-.35-.99-.45-1.5-.11-.51-.16-1.04-.16-1.56s.05-1.05,.16-1.56c.1-.51,.25-1.02,.45-1.5,.2-.48,.45-.95,.74-1.38,.29-.44,.62-.85,.99-1.22,.37-.37,.78-.7,1.22-.99,.43-.29,.9-.54,1.38-.74,.48-.2,.99-.35,1.5-.45,1.03-.21,2.09-.21,3.12,0,.51,.1,1.02,.25,1.5,.45,.48,.2,.95,.45,1.38,.74,.44,.29,.85,.62,1.22,.99,.37,.37,.7,.78,.99,1.22,.29,.43,.54,.9,.74,1.38,.2,.48,.35,.99,.45,1.5,.11,.51,.16,1.04,.16,1.56s-.05,1.05-.16,1.56c-.1,.51-.25,1.02-.45,1.5-.2,.48-.45,.95-.74,1.38-.29,.44-.62,.85-.99,1.22-.37,.36-.78,.7-1.22,.99-.43,.29-.9,.54-1.38,.74-.48,.2-.99,.35-1.5,.45-.51,.11-1.04,.16-1.56,.16Z"/><path class="uuid-53ebfd68-cc55-473b-b97a-24e3ff4299bd" d="M3113.69,728c0-4.42,3.58-8,8-8h0c4.42,0,8,3.58,8,8h0c0,4.42-3.58,8-8,8h0c-4.42,0-8-3.58-8-8Zm-90.22,0c0-4.42,3.57-8,8-8h0c4.41,0,7.99,3.58,7.99,8h0c0,4.42-3.58,8-7.99,8h0c-4.43,0-8-3.58-8-8Zm-90.23,0c0-4.42,3.58-8,8-8h0c4.42,0,8,3.58,8,8h0c0,4.42-3.58,8-8,8h0c-4.42,0-8-3.58-8-8Zm-90.23,0c0-4.42,3.58-8,8-8h0c4.42,0,8,3.58,8,8h0c0,4.42-3.58,8-8,8h0c-4.42,0-8-3.58-8-8Zm-90.22,0c0-4.42,3.58-8,8-8h0c4.41,0,8,3.58,8,8h0c0,4.42-3.59,8-8,8h0c-4.42,0-8-3.58-8-8Zm-90.23,0c0-4.42,3.58-8,8-8h0c4.42,0,8,3.58,8,8h0c0,4.42-3.58,8-8,8h0c-4.42,0-8-3.58-8-8Zm-90.23,0c0-4.42,3.58-8,8-8h0c4.42,0,8,3.58,8,8h0c0,4.42-3.58,8-8,8h0c-4.42,0-8-3.58-8-8Zm-90.22,0c0-4.42,3.58-8,8-8h0c4.41,0,8,3.58,8,8h0c0,4.42-3.59,8-8,8h0c-4.42,0-8-3.58-8-8Zm-90.23,0c0-4.42,3.58-8,8-8h0c4.42,0,8,3.58,8,8h0c0,4.42-3.58,8-8,8h0c-4.42,0-8-3.58-8-8Zm-90.23,0c0-4.42,3.59-8,8.01-8h0c4.41,0,7.99,3.58,7.99,8h0c0,4.42-3.58,8-7.99,8h0c-4.42,0-8.01-3.58-8.01-8Zm-90.22,0c0-4.42,3.58-8,8-8h0c4.42,0,8,3.58,8,8h0c0,4.42-3.58,8-8,8h0c-4.42,0-8-3.58-8-8Zm-90.23,0c0-4.42,3.58-8,8-8h0c4.42,0,8,3.58,8,8h0c0,4.42-3.58,8-8,8h0c-4.42,0-8-3.58-8-8Zm-90.22,0c0-4.42,3.58-8,8-8h0c4.41,0,8,3.58,8,8h0c0,4.42-3.59,8-8,8h0c-4.42,0-8-3.58-8-8Zm-90.23,0c0-4.42,3.58-8,8-8h0c4.42,0,8,3.58,8,8h0c0,4.42-3.58,8-8,8h0c-4.42,0-8-3.58-8-8Zm-90.23,0c0-4.42,3.59-8,8-8h0c4.42,0,8,3.58,8,8h0c0,4.42-3.58,8-8,8h0c-4.41,0-8-3.58-8-8Zm-90.22,0c0-4.42,3.58-8,8-8h0c4.42,0,8,3.58,8,8h0c0,4.42-3.58,8-8,8h0c-4.42,0-8-3.58-8-8Zm-90.23,0c0-4.42,3.58-8,8-8h0c4.42,0,8,3.58,8,8h0c0,4.42-3.58,8-8,8h0c-4.42,0-8-3.58-8-8Zm-90.23,0c0-4.42,3.59-8,8.01-8h0c4.41,0,8,3.58,8,8h0c0,4.42-3.59,8-8,8h0c-4.42,0-8.01-3.58-8.01-8Zm-90.22,0c0-4.42,3.58-8,8-8h0c4.42,0,8,3.58,8,8h0c0,4.42-3.58,8-8,8h0c-4.42,0-8-3.58-8-8Zm-90.23,0c0-4.42,3.59-8,8-8h0c4.42,0,8,3.58,8,8h0c0,4.42-3.58,8-8,8h0c-4.41,0-8-3.58-8-8Zm-90.22,0c0-4.42,3.58-8,8-8h0c4.42,0,8,3.58,8,8h0c0,4.42-3.58,8-8,8h0c-4.42,0-8-3.58-8-8Zm-90.23,0c0-4.42,3.58-8,8-8h0c4.42,0,8,3.58,8,8h0c0,4.42-3.58,8-8,8h0c-4.42,0-8-3.58-8-8Zm-90.23,0c0-4.42,3.59-8,8-8h0c4.42,0,8,3.58,8,8h0c0,4.42-3.58,8-8,8h0c-4.41,0-8-3.58-8-8Zm-90.22,0c0-4.42,3.58-8,8-8h0c4.42,0,8,3.58,8,8h0c0,4.42-3.58,8-8,8h0c-4.42,0-8-3.58-8-8Zm-90.23,0c0-4.42,3.58-8,8-8h0c4.42,0,8,3.58,8,8h0c0,4.42-3.58,8-8,8h0c-4.42,0-8-3.58-8-8Zm-90.22,0c0-4.42,3.58-8,8-8h0c4.41,0,8,3.58,8,8h0c0,4.42-3.59,8-8,8h0c-4.42,0-8-3.58-8-8Zm-90.23,0c0-4.42,3.58-8,8-8h0c4.42,0,8,3.58,8,8h0c0,4.42-3.58,8-8,8h0c-4.42,0-8-3.58-8-8Zm-90.23,0c0-4.42,3.59-8,8-8h0c4.42,0,8,3.58,8,8h0c0,4.42-3.58,8-8,8h0c-4.41,0-8-3.58-8-8Zm-90.22,0c0-4.42,3.58-8,8-8h0c4.42,0,8,3.58,8,8h0c0,4.42-3.58,8-8,8h0c-4.42,0-8-3.58-8-8Zm-90.23,0c0-4.42,3.58-8,8-8h0c4.42,0,8,3.58,8,8h0c0,4.42-3.58,8-8,8h0c-4.42,0-8-3.58-8-8Zm-90.22,0c0-4.42,3.58-8,7.99-8h0c4.42,0,8.01,3.58,8.01,8h0c0,4.42-3.59,8-8.01,8h0c-4.41,0-7.99-3.58-7.99-8Zm-90.23,0c0-4.42,3.58-8,8-8h0c4.42,0,8,3.58,8,8h0c0,4.42-3.58,8-8,8h0c-4.42,0-8-3.58-8-8Zm-90.23,0c0-4.42,3.58-8,8-8h0c4.42,0,8,3.58,8,8h0c0,4.42-3.58,8-8,8h0c-4.42,0-8-3.58-8-8Zm-90.22,0c0-4.42,3.58-8,8-8h0c4.42,0,8,3.58,8,8h0c0,4.42-3.58,8-8,8h0c-4.42,0-8-3.58-8-8Z"/><path class="uuid-53ebfd68-cc55-473b-b97a-24e3ff4299bd" d="M3211.92,736c-.52,0-1.05-.05-1.56-.16-.51-.1-1.02-.25-1.5-.45-.48-.2-.95-.45-1.38-.74-.44-.29-.85-.62-1.22-.99-1.49-1.49-2.34-3.55-2.34-5.66,0-.52,.05-1.05,.16-1.56,.1-.51,.25-1.02,.45-1.5,.2-.48,.45-.95,.74-1.38,.29-.44,.62-.85,.99-1.22,.37-.36,.78-.7,1.22-.99,.43-.29,.9-.54,1.38-.74,.48-.2,.99-.35,1.5-.45,2.6-.53,5.36,.33,7.22,2.18,.37,.37,.7,.78,.99,1.22,.29,.43,.54,.9,.74,1.38s.35,.99,.45,1.5c.11,.51,.16,1.04,.16,1.56,0,2.11-.85,4.17-2.34,5.66-1.49,1.49-3.55,2.34-5.66,2.34Z"/></g><g><path class="uuid-53ebfd68-cc55-473b-b97a-24e3ff4299bd" d="M8,826c-.52,0-1.05-.05-1.56-.16-.51-.1-1.02-.25-1.5-.45-.48-.2-.95-.45-1.38-.74-.44-.29-.85-.63-1.22-.99-.37-.37-.7-.78-.99-1.22-.29-.43-.54-.9-.74-1.38-.2-.48-.35-.99-.45-1.5-.11-.51-.16-1.04-.16-1.56s.05-1.05,.16-1.56c.1-.51,.25-1.02,.45-1.5,.2-.48,.45-.95,.74-1.38,.29-.44,.62-.85,.99-1.22,.37-.36,.78-.7,1.22-.99,.43-.29,.9-.54,1.38-.74,.48-.2,.99-.35,1.5-.45,1.03-.21,2.09-.21,3.12,0,.51,.1,1.02,.25,1.5,.45,.48,.2,.95,.45,1.38,.74,.44,.29,.85,.63,1.22,.99,.37,.37,.7,.78,.99,1.22,.29,.43,.54,.9,.74,1.38,.2,.48,.35,.99,.45,1.5,.11,.51,.16,1.04,.16,1.56s-.05,1.05-.16,1.56c-.1,.51-.25,1.02-.45,1.5-.2,.48-.45,.95-.74,1.38-.29,.44-.62,.85-.99,1.22-.37,.36-.78,.7-1.22,.99-.43,.29-.9,.54-1.38,.74-.48,.2-.99,.35-1.5,.45-.51,.11-1.04,.16-1.56,.16Z"/><path class="uuid-53ebfd68-cc55-473b-b97a-24e3ff4299bd" d="M3067.69,818c0-4.42,3.58-8,8-8h0c4.42,0,8,3.58,8,8h0c0,4.42-3.58,8-8,8h0c-4.42,0-8-3.58-8-8Zm-90.23,0c0-4.42,3.59-8,8-8h0c4.42,0,8,3.58,8,8h0c0,4.42-3.58,8-8,8h0c-4.41,0-8-3.58-8-8Zm-90.22,0c0-4.42,3.58-8,8-8h0c4.42,0,8,3.58,8,8h0c0,4.42-3.58,8-8,8h0c-4.42,0-8-3.58-8-8Zm-90.23,0c0-4.42,3.58-8,8-8h0c4.42,0,8,3.58,8,8h0c0,4.42-3.58,8-8,8h0c-4.42,0-8-3.58-8-8Zm-90.22,0c0-4.42,3.58-8,8-8h0c4.41,0,7.99,3.58,7.99,8h0c0,4.42-3.58,8-7.99,8h0c-4.42,0-8-3.58-8-8Zm-90.23,0c0-4.42,3.58-8,8-8h0c4.42,0,8,3.58,8,8h0c0,4.42-3.58,8-8,8h0c-4.42,0-8-3.58-8-8Zm-90.23,0c0-4.42,3.59-8,8-8h0c4.42,0,8,3.58,8,8h0c0,4.42-3.58,8-8,8h0c-4.41,0-8-3.58-8-8Zm-90.22,0c0-4.42,3.58-8,8-8h0c4.41,0,8,3.58,8,8h0c0,4.42-3.59,8-8,8h0c-4.42,0-8-3.58-8-8Zm-90.23,0c0-4.42,3.58-8,8-8h0c4.42,0,8,3.58,8,8h0c0,4.42-3.58,8-8,8h0c-4.42,0-8-3.58-8-8Zm-90.22,0c0-4.42,3.58-8,8-8h0c4.41,0,7.99,3.58,7.99,8h0c0,4.42-3.58,8-7.99,8h0c-4.42,0-8-3.58-8-8Zm-90.23,0c0-4.42,3.58-8,8-8h0c4.42,0,8,3.58,8,8h0c0,4.42-3.58,8-8,8h0c-4.42,0-8-3.58-8-8Zm-90.23,0c0-4.42,3.58-8,8-8h0c4.42,0,8,3.58,8,8h0c0,4.42-3.58,8-8,8h0c-4.42,0-8-3.58-8-8Zm-90.22,0c0-4.42,3.58-8,8-8h0c4.42,0,8,3.58,8,8h0c0,4.42-3.58,8-8,8h0c-4.42,0-8-3.58-8-8Zm-90.23,0c0-4.42,3.58-8,8-8h0c4.42,0,8,3.58,8,8h0c0,4.42-3.58,8-8,8h0c-4.42,0-8-3.58-8-8Zm-90.23,0c0-4.42,3.59-8,8-8h0c4.42,0,8.01,3.58,8.01,8h0c0,4.42-3.59,8-8.01,8h0c-4.41,0-8-3.58-8-8Zm-90.22,0c0-4.42,3.58-8,8-8h0c4.42,0,8,3.58,8,8h0c0,4.42-3.58,8-8,8h0c-4.42,0-8-3.58-8-8Zm-90.23,0c0-4.42,3.58-8,8-8h0c4.42,0,8,3.58,8,8h0c0,4.42-3.58,8-8,8h0c-4.42,0-8-3.58-8-8Zm-90.22,0c0-4.42,3.58-8,7.99-8h0c4.42,0,8.01,3.58,8.01,8h0c0,4.42-3.59,8-8.01,8h0c-4.41,0-7.99-3.58-7.99-8Zm-90.23,0c0-4.42,3.58-8,8-8h0c4.42,0,8,3.58,8,8h0c0,4.42-3.58,8-8,8h0c-4.42,0-8-3.58-8-8Zm-90.23,0c0-4.42,3.59-8,8-8h0c4.42,0,8,3.58,8,8h0c0,4.42-3.58,8-8,8h0c-4.41,0-8-3.58-8-8Zm-90.22,0c0-4.42,3.58-8,8-8h0c4.41,0,8,3.58,8,8h0c0,4.42-3.59,8-8,8h0c-4.42,0-8-3.58-8-8Zm-90.23,0c0-4.42,3.58-8,8-8h0c4.42,0,8,3.58,8,8h0c0,4.42-3.58,8-8,8h0c-4.42,0-8-3.58-8-8Zm-90.22,0c0-4.42,3.58-8,8-8h0c4.41,0,7.99,3.58,7.99,8h0c0,4.42-3.58,8-7.99,8h0c-4.42,0-8-3.58-8-8Zm-90.23,0c0-4.42,3.58-8,8-8h0c4.42,0,8,3.58,8,8h0c0,4.42-3.58,8-8,8h0c-4.42,0-8-3.58-8-8Zm-90.23,0c0-4.42,3.58-8,8-8h0c4.42,0,8,3.58,8,8h0c0,4.42-3.58,8-8,8h0c-4.42,0-8-3.58-8-8Zm-90.22,0c0-4.42,3.58-8,8-8h0c4.42,0,8,3.58,8,8h0c0,4.42-3.58,8-8,8h0c-4.42,0-8-3.58-8-8Zm-90.23,0c0-4.42,3.58-8,8-8h0c4.42,0,8,3.58,8,8h0c0,4.42-3.58,8-8,8h0c-4.42,0-8-3.58-8-8Zm-90.23,0c0-4.42,3.58-8,8-8h0c4.42,0,8,3.58,8,8h0c0,4.42-3.58,8-8,8h0c-4.42,0-8-3.58-8-8Zm-90.22,0c0-4.42,3.58-8,8-8h0c4.42,0,8,3.58,8,8h0c0,4.42-3.58,8-8,8h0c-4.42,0-8-3.58-8-8Zm-90.23,0c0-4.42,3.58-8,8-8h0c4.42,0,8,3.58,8,8h0c0,4.42-3.58,8-8,8h0c-4.42,0-8-3.58-8-8Zm-90.23,0c0-4.42,3.59-8,8-8h0c4.42,0,8,3.58,8,8h0c0,4.42-3.58,8-8,8h0c-4.41,0-8-3.58-8-8Zm-90.22,0c0-4.42,3.58-8,8-8h0c4.42,0,8,3.58,8,8h0c0,4.42-3.58,8-8,8h0c-4.42,0-8-3.58-8-8Zm-90.23,0c0-4.42,3.59-8,8-8h0c4.42,0,8,3.58,8,8h0c0,4.42-3.58,8-8,8h0c-4.41,0-8-3.58-8-8Zm-90.22,0c0-4.42,3.58-8,8-8h0c4.41,0,8,3.58,8,8h0c0,4.42-3.59,8-8,8h0c-4.42,0-8-3.58-8-8Z"/><path class="uuid-53ebfd68-cc55-473b-b97a-24e3ff4299bd" d="M3165.92,826c-.52,0-1.05-.05-1.56-.16-.51-.1-1.02-.25-1.5-.45-.48-.2-.95-.45-1.38-.74-.44-.29-.85-.62-1.22-.99-.37-.37-.7-.78-.99-1.22-.29-.43-.54-.9-.74-1.38-.2-.48-.35-.99-.45-1.5-.11-.51-.16-1.04-.16-1.56,0-2.1,.85-4.17,2.34-5.66,.37-.37,.78-.7,1.22-.99,.43-.29,.9-.54,1.38-.74,.48-.2,.99-.35,1.5-.45,1.03-.21,2.09-.21,3.12,0,.51,.1,1.02,.25,1.5,.45,.48,.2,.95,.45,1.38,.74,.44,.29,.85,.62,1.21,.99,1.5,1.49,2.35,3.55,2.35,5.66,0,.52-.05,1.05-.16,1.56-.1,.51-.25,1.02-.45,1.5s-.45,.95-.74,1.38c-.29,.44-.63,.85-1,1.22-.36,.37-.77,.7-1.21,.99-.43,.29-.9,.54-1.38,.74-.48,.2-.99,.35-1.5,.45-.51,.11-1.04,.16-1.56,.16Z"/></g></g><g><g><path class="uuid-53ebfd68-cc55-473b-b97a-24e3ff4299bd" d="M54,556c-2.1,0-4.17-.85-5.66-2.34-.37-.37-.7-.78-.99-1.22-.29-.43-.54-.9-.74-1.38-.2-.48-.35-.99-.45-1.5-.11-.51-.16-1.04-.16-1.56,0-2.1,.85-4.17,2.34-5.66,.37-.37,.78-.7,1.22-.99,.43-.29,.9-.54,1.38-.74,.48-.2,.99-.35,1.5-.45,1.03-.21,2.09-.21,3.12,0,.51,.1,1.02,.25,1.5,.45,.48,.2,.95,.45,1.38,.74,.44,.29,.85,.62,1.22,.99,1.49,1.49,2.34,3.56,2.34,5.66,0,.52-.05,1.05-.16,1.56-.1,.51-.25,1.02-.45,1.5-.2,.48-.45,.95-.74,1.38-.29,.44-.63,.85-.99,1.22-.37,.36-.78,.7-1.22,.99-.43,.29-.9,.54-1.38,.74-.48,.2-.99,.35-1.5,.45-.51,.11-1.04,.16-1.56,.16Z"/><path class="uuid-53ebfd68-cc55-473b-b97a-24e3ff4299bd" d="M3113.69,548c0-4.42,3.58-8,8-8h0c4.42,0,8,3.58,8,8h0c0,4.42-3.58,8-8,8h0c-4.42,0-8-3.58-8-8Zm-90.22,0c0-4.42,3.57-8,8-8h0c4.41,0,7.99,3.58,7.99,8h0c0,4.42-3.58,8-7.99,8h0c-4.43,0-8-3.58-8-8Zm-90.23,0c0-4.42,3.58-8,8-8h0c4.42,0,8,3.58,8,8h0c0,4.42-3.58,8-8,8h0c-4.42,0-8-3.58-8-8Zm-90.23,0c0-4.42,3.58-8,8-8h0c4.42,0,8,3.58,8,8h0c0,4.42-3.58,8-8,8h0c-4.42,0-8-3.58-8-8Zm-90.22,0c0-4.42,3.58-8,8-8h0c4.41,0,8,3.58,8,8h0c0,4.42-3.59,8-8,8h0c-4.42,0-8-3.58-8-8Zm-90.23,0c0-4.42,3.58-8,8-8h0c4.42,0,8,3.58,8,8h0c0,4.42-3.58,8-8,8h0c-4.42,0-8-3.58-8-8Zm-90.23,0c0-4.42,3.58-8,8-8h0c4.42,0,8,3.58,8,8h0c0,4.42-3.58,8-8,8h0c-4.42,0-8-3.58-8-8Zm-90.22,0c0-4.42,3.58-8,8-8h0c4.41,0,8,3.58,8,8h0c0,4.42-3.59,8-8,8h0c-4.42,0-8-3.58-8-8Zm-90.23,0c0-4.42,3.58-8,8-8h0c4.42,0,8,3.58,8,8h0c0,4.42-3.58,8-8,8h0c-4.42,0-8-3.58-8-8Zm-90.23,0c0-4.42,3.59-8,8.01-8h0c4.41,0,7.99,3.58,7.99,8h0c0,4.42-3.58,8-7.99,8h0c-4.42,0-8.01-3.58-8.01-8Zm-90.22,0c0-4.42,3.58-8,8-8h0c4.42,0,8,3.58,8,8h0c0,4.42-3.58,8-8,8h0c-4.42,0-8-3.58-8-8Zm-90.23,0c0-4.42,3.58-8,8-8h0c4.42,0,8,3.58,8,8h0c0,4.42-3.58,8-8,8h0c-4.42,0-8-3.58-8-8Zm-90.22,0c0-4.42,3.58-8,8-8h0c4.41,0,8,3.58,8,8h0c0,4.42-3.59,8-8,8h0c-4.42,0-8-3.58-8-8Zm-90.23,0c0-4.42,3.58-8,8-8h0c4.42,0,8,3.58,8,8h0c0,4.42-3.58,8-8,8h0c-4.42,0-8-3.58-8-8Zm-90.23,0c0-4.42,3.59-8,8-8h0c4.42,0,8,3.58,8,8h0c0,4.42-3.58,8-8,8h0c-4.41,0-8-3.58-8-8Zm-90.22,0c0-4.42,3.58-8,8-8h0c4.42,0,8,3.58,8,8h0c0,4.42-3.58,8-8,8h0c-4.42,0-8-3.58-8-8Zm-90.23,0c0-4.42,3.58-8,8-8h0c4.42,0,8,3.58,8,8h0c0,4.42-3.58,8-8,8h0c-4.42,0-8-3.58-8-8Zm-90.23,0c0-4.42,3.59-8,8.01-8h0c4.41,0,8,3.58,8,8h0c0,4.42-3.59,8-8,8h0c-4.42,0-8.01-3.58-8.01-8Zm-90.22,0c0-4.42,3.58-8,8-8h0c4.42,0,8,3.58,8,8h0c0,4.42-3.58,8-8,8h0c-4.42,0-8-3.58-8-8Zm-90.23,0c0-4.42,3.59-8,8-8h0c4.42,0,8,3.58,8,8h0c0,4.42-3.58,8-8,8h0c-4.41,0-8-3.58-8-8Zm-90.22,0c0-4.42,3.58-8,8-8h0c4.42,0,8,3.58,8,8h0c0,4.42-3.58,8-8,8h0c-4.42,0-8-3.58-8-8Zm-90.23,0c0-4.42,3.58-8,8-8h0c4.42,0,8,3.58,8,8h0c0,4.42-3.58,8-8,8h0c-4.42,0-8-3.58-8-8Zm-90.23,0c0-4.42,3.59-8,8-8h0c4.42,0,8,3.58,8,8h0c0,4.42-3.58,8-8,8h0c-4.41,0-8-3.58-8-8Zm-90.22,0c0-4.42,3.58-8,8-8h0c4.42,0,8,3.58,8,8h0c0,4.42-3.58,8-8,8h0c-4.42,0-8-3.58-8-8Zm-90.23,0c0-4.42,3.58-8,8-8h0c4.42,0,8,3.58,8,8h0c0,4.42-3.58,8-8,8h0c-4.42,0-8-3.58-8-8Zm-90.22,0c0-4.42,3.58-8,8-8h0c4.41,0,8,3.58,8,8h0c0,4.42-3.59,8-8,8h0c-4.42,0-8-3.58-8-8Zm-90.23,0c0-4.42,3.58-8,8-8h0c4.42,0,8,3.58,8,8h0c0,4.42-3.58,8-8,8h0c-4.42,0-8-3.58-8-8Zm-90.23,0c0-4.42,3.59-8,8-8h0c4.42,0,8,3.58,8,8h0c0,4.42-3.58,8-8,8h0c-4.41,0-8-3.58-8-8Zm-90.22,0c0-4.42,3.58-8,8-8h0c4.42,0,8,3.58,8,8h0c0,4.42-3.58,8-8,8h0c-4.42,0-8-3.58-8-8Zm-90.23,0c0-4.42,3.58-8,8-8h0c4.42,0,8,3.58,8,8h0c0,4.42-3.58,8-8,8h0c-4.42,0-8-3.58-8-8Zm-90.22,0c0-4.42,3.58-8,7.99-8h0c4.42,0,8.01,3.58,8.01,8h0c0,4.42-3.59,8-8.01,8h0c-4.41,0-7.99-3.58-7.99-8Zm-90.23,0c0-4.42,3.58-8,8-8h0c4.42,0,8,3.58,8,8h0c0,4.42-3.58,8-8,8h0c-4.42,0-8-3.58-8-8Zm-90.23,0c0-4.42,3.58-8,8-8h0c4.42,0,8,3.58,8,8h0c0,4.42-3.58,8-8,8h0c-4.42,0-8-3.58-8-8Zm-90.22,0c0-4.42,3.58-8,8-8h0c4.42,0,8,3.58,8,8h0c0,4.42-3.58,8-8,8h0c-4.42,0-8-3.58-8-8Z"/><path class="uuid-53ebfd68-cc55-473b-b97a-24e3ff4299bd" d="M3211.92,556c-.52,0-1.05-.05-1.56-.16-.51-.1-1.02-.25-1.5-.45-.48-.2-.95-.45-1.38-.74-.44-.29-.85-.63-1.22-.99-.37-.37-.7-.78-.99-1.22-.29-.43-.54-.9-.74-1.38-.2-.48-.35-.99-.45-1.5-.11-.51-.16-1.04-.16-1.56,0-2.11,.85-4.17,2.34-5.66,.37-.37,.78-.7,1.22-.99,.43-.29,.9-.54,1.38-.74,.48-.2,.99-.35,1.5-.45,1.03-.21,2.09-.21,3.12,0,.51,.1,1.02,.25,1.5,.45,.48,.2,.95,.45,1.38,.74,.44,.29,.85,.62,1.22,.99,1.49,1.49,2.34,3.55,2.34,5.66,0,.52-.05,1.05-.16,1.56-.1,.51-.25,1.02-.45,1.5s-.45,.95-.74,1.38c-.29,.44-.62,.85-.99,1.22-.37,.36-.78,.7-1.22,.99-.43,.29-.9,.54-1.38,.74-.48,.2-.99,.35-1.5,.45-.51,.11-1.04,.16-1.56,.16Z"/></g><g><path class="uuid-53ebfd68-cc55-473b-b97a-24e3ff4299bd" d="M8,646c-.52,0-1.05-.05-1.56-.16-.51-.1-1.02-.25-1.5-.45-.48-.2-.95-.45-1.38-.74-.44-.29-.85-.63-1.22-.99-.37-.37-.7-.78-.99-1.22-.29-.43-.54-.9-.74-1.38-.2-.48-.35-.99-.45-1.5-.11-.51-.16-1.04-.16-1.56s.05-1.05,.16-1.56c.1-.51,.25-1.02,.45-1.5,.2-.48,.45-.95,.74-1.38,.29-.44,.62-.85,.99-1.22,1.49-1.49,3.55-2.34,5.66-2.34s4.17,.85,5.66,2.34c.37,.37,.7,.78,.99,1.22,.29,.43,.54,.9,.74,1.38,.2,.48,.35,.99,.45,1.5,.11,.51,.16,1.04,.16,1.56s-.05,1.05-.16,1.56c-.1,.51-.25,1.02-.45,1.5-.2,.48-.45,.95-.74,1.38-.29,.44-.62,.85-.99,1.22-.37,.36-.78,.7-1.22,.99-.43,.29-.9,.54-1.38,.74-.48,.2-.99,.35-1.5,.45-.51,.11-1.04,.16-1.56,.16Z"/><path class="uuid-53ebfd68-cc55-473b-b97a-24e3ff4299bd" d="M3067.69,638c0-4.42,3.58-8,8-8h0c4.42,0,8,3.58,8,8h0c0,4.42-3.58,8-8,8h0c-4.42,0-8-3.58-8-8Zm-90.23,0c0-4.42,3.59-8,8-8h0c4.42,0,8,3.58,8,8h0c0,4.42-3.58,8-8,8h0c-4.41,0-8-3.58-8-8Zm-90.22,0c0-4.42,3.58-8,8-8h0c4.42,0,8,3.58,8,8h0c0,4.42-3.58,8-8,8h0c-4.42,0-8-3.58-8-8Zm-90.23,0c0-4.42,3.58-8,8-8h0c4.42,0,8,3.58,8,8h0c0,4.42-3.58,8-8,8h0c-4.42,0-8-3.58-8-8Zm-90.22,0c0-4.42,3.58-8,8-8h0c4.41,0,7.99,3.58,7.99,8h0c0,4.42-3.58,8-7.99,8h0c-4.42,0-8-3.58-8-8Zm-90.23,0c0-4.42,3.58-8,8-8h0c4.42,0,8,3.58,8,8h0c0,4.42-3.58,8-8,8h0c-4.42,0-8-3.58-8-8Zm-90.23,0c0-4.42,3.59-8,8-8h0c4.42,0,8,3.58,8,8h0c0,4.42-3.58,8-8,8h0c-4.41,0-8-3.58-8-8Zm-90.22,0c0-4.42,3.58-8,8-8h0c4.41,0,8,3.58,8,8h0c0,4.42-3.59,8-8,8h0c-4.42,0-8-3.58-8-8Zm-90.23,0c0-4.42,3.58-8,8-8h0c4.42,0,8,3.58,8,8h0c0,4.42-3.58,8-8,8h0c-4.42,0-8-3.58-8-8Zm-90.22,0c0-4.42,3.58-8,8-8h0c4.41,0,7.99,3.58,7.99,8h0c0,4.42-3.58,8-7.99,8h0c-4.42,0-8-3.58-8-8Zm-90.23,0c0-4.42,3.58-8,8-8h0c4.42,0,8,3.58,8,8h0c0,4.42-3.58,8-8,8h0c-4.42,0-8-3.58-8-8Zm-90.23,0c0-4.42,3.58-8,8-8h0c4.42,0,8,3.58,8,8h0c0,4.42-3.58,8-8,8h0c-4.42,0-8-3.58-8-8Zm-90.22,0c0-4.42,3.58-8,8-8h0c4.42,0,8,3.58,8,8h0c0,4.42-3.58,8-8,8h0c-4.42,0-8-3.58-8-8Zm-90.23,0c0-4.42,3.58-8,8-8h0c4.42,0,8,3.58,8,8h0c0,4.42-3.58,8-8,8h0c-4.42,0-8-3.58-8-8Zm-90.23,0c0-4.42,3.59-8,8-8h0c4.42,0,8.01,3.58,8.01,8h0c0,4.42-3.59,8-8.01,8h0c-4.41,0-8-3.58-8-8Zm-90.22,0c0-4.42,3.58-8,8-8h0c4.42,0,8,3.58,8,8h0c0,4.42-3.58,8-8,8h0c-4.42,0-8-3.58-8-8Zm-90.23,0c0-4.42,3.58-8,8-8h0c4.42,0,8,3.58,8,8h0c0,4.42-3.58,8-8,8h0c-4.42,0-8-3.58-8-8Zm-90.22,0c0-4.42,3.58-8,7.99-8h0c4.42,0,8.01,3.58,8.01,8h0c0,4.42-3.59,8-8.01,8h0c-4.41,0-7.99-3.58-7.99-8Zm-90.23,0c0-4.42,3.58-8,8-8h0c4.42,0,8,3.58,8,8h0c0,4.42-3.58,8-8,8h0c-4.42,0-8-3.58-8-8Zm-90.23,0c0-4.42,3.59-8,8-8h0c4.42,0,8,3.58,8,8h0c0,4.42-3.58,8-8,8h0c-4.41,0-8-3.58-8-8Zm-90.22,0c0-4.42,3.58-8,8-8h0c4.41,0,8,3.58,8,8h0c0,4.42-3.59,8-8,8h0c-4.42,0-8-3.58-8-8Zm-90.23,0c0-4.42,3.58-8,8-8h0c4.42,0,8,3.58,8,8h0c0,4.42-3.58,8-8,8h0c-4.42,0-8-3.58-8-8Zm-90.22,0c0-4.42,3.58-8,8-8h0c4.41,0,7.99,3.58,7.99,8h0c0,4.42-3.58,8-7.99,8h0c-4.42,0-8-3.58-8-8Zm-90.23,0c0-4.42,3.58-8,8-8h0c4.42,0,8,3.58,8,8h0c0,4.42-3.58,8-8,8h0c-4.42,0-8-3.58-8-8Zm-90.23,0c0-4.42,3.58-8,8-8h0c4.42,0,8,3.58,8,8h0c0,4.42-3.58,8-8,8h0c-4.42,0-8-3.58-8-8Zm-90.22,0c0-4.42,3.58-8,8-8h0c4.42,0,8,3.58,8,8h0c0,4.42-3.58,8-8,8h0c-4.42,0-8-3.58-8-8Zm-90.23,0c0-4.42,3.58-8,8-8h0c4.42,0,8,3.58,8,8h0c0,4.42-3.58,8-8,8h0c-4.42,0-8-3.58-8-8Zm-90.23,0c0-4.42,3.58-8,8-8h0c4.42,0,8,3.58,8,8h0c0,4.42-3.58,8-8,8h0c-4.42,0-8-3.58-8-8Zm-90.22,0c0-4.42,3.58-8,8-8h0c4.42,0,8,3.58,8,8h0c0,4.42-3.58,8-8,8h0c-4.42,0-8-3.58-8-8Zm-90.23,0c0-4.42,3.58-8,8-8h0c4.42,0,8,3.58,8,8h0c0,4.42-3.58,8-8,8h0c-4.42,0-8-3.58-8-8Zm-90.23,0c0-4.42,3.59-8,8-8h0c4.42,0,8,3.58,8,8h0c0,4.42-3.58,8-8,8h0c-4.41,0-8-3.58-8-8Zm-90.22,0c0-4.42,3.58-8,8-8h0c4.42,0,8,3.58,8,8h0c0,4.42-3.58,8-8,8h0c-4.42,0-8-3.58-8-8Zm-90.23,0c0-4.42,3.59-8,8-8h0c4.42,0,8,3.58,8,8h0c0,4.42-3.58,8-8,8h0c-4.41,0-8-3.58-8-8Zm-90.22,0c0-4.42,3.58-8,8-8h0c4.41,0,8,3.58,8,8h0c0,4.42-3.59,8-8,8h0c-4.42,0-8-3.58-8-8Z"/><path class="uuid-53ebfd68-cc55-473b-b97a-24e3ff4299bd" d="M3165.92,646c-.52,0-1.05-.05-1.56-.16-.51-.1-1.02-.25-1.5-.45-.48-.2-.95-.45-1.38-.74-.44-.29-.85-.62-1.22-.99-.37-.37-.7-.78-.99-1.22-.29-.43-.54-.9-.74-1.38-.2-.48-.35-.99-.45-1.5-.11-.51-.16-1.04-.16-1.56,0-2.1,.85-4.17,2.34-5.66,.37-.37,.78-.7,1.22-.99,.43-.29,.9-.54,1.38-.74,.48-.2,.99-.35,1.5-.45,1.03-.21,2.09-.21,3.12,0,.51,.1,1.02,.25,1.5,.45,.48,.2,.95,.45,1.38,.74,.44,.29,.85,.62,1.21,.99,1.5,1.49,2.35,3.55,2.35,5.66,0,.52-.05,1.05-.16,1.56-.1,.51-.25,1.02-.45,1.5s-.45,.95-.74,1.38c-.29,.44-.63,.85-1,1.22-.36,.37-.77,.7-1.21,.99-.43,.29-.9,.54-1.38,.74-.48,.2-.99,.35-1.5,.45-.51,.11-1.04,.16-1.56,.16Z"/></g></g><g><g><path class="uuid-53ebfd68-cc55-473b-b97a-24e3ff4299bd" d="M54,376c-.52,0-1.05-.05-1.56-.16-.51-.1-1.02-.25-1.5-.45-.48-.2-.95-.45-1.38-.74-.44-.29-.85-.62-1.22-.99-1.49-1.49-2.34-3.55-2.34-5.66,0-.52,.05-1.05,.16-1.56,.1-.51,.25-1.02,.45-1.5,.2-.48,.45-.95,.74-1.38,.29-.44,.62-.85,.99-1.22,.37-.36,.78-.7,1.22-.99,.43-.29,.9-.54,1.38-.74,.48-.2,.99-.35,1.5-.45,1.03-.21,2.09-.21,3.12,0,.51,.1,1.02,.25,1.5,.45,.48,.2,.95,.45,1.38,.74,.44,.29,.85,.63,1.22,.99,1.49,1.49,2.34,3.56,2.34,5.66s-.85,4.17-2.34,5.66c-.37,.37-.78,.7-1.22,.99-.43,.29-.9,.54-1.38,.74-.48,.2-.99,.35-1.5,.45-.51,.11-1.04,.16-1.56,.16Z"/><path class="uuid-53ebfd68-cc55-473b-b97a-24e3ff4299bd" d="M3113.69,368c0-4.42,3.58-8,8-8h0c4.42,0,8,3.58,8,8h0c0,4.42-3.58,8-8,8h0c-4.42,0-8-3.58-8-8Zm-90.22,0c0-4.42,3.57-8,8-8h0c4.41,0,7.99,3.58,7.99,8h0c0,4.42-3.58,8-7.99,8h0c-4.43,0-8-3.58-8-8Zm-90.23,0c0-4.42,3.58-8,8-8h0c4.42,0,8,3.58,8,8h0c0,4.42-3.58,8-8,8h0c-4.42,0-8-3.58-8-8Zm-90.23,0c0-4.42,3.58-8,8-8h0c4.42,0,8,3.58,8,8h0c0,4.42-3.58,8-8,8h0c-4.42,0-8-3.58-8-8Zm-90.22,0c0-4.42,3.58-8,8-8h0c4.41,0,8,3.58,8,8h0c0,4.42-3.59,8-8,8h0c-4.42,0-8-3.58-8-8Zm-90.23,0c0-4.42,3.58-8,8-8h0c4.42,0,8,3.58,8,8h0c0,4.42-3.58,8-8,8h0c-4.42,0-8-3.58-8-8Zm-90.23,0c0-4.42,3.58-8,8-8h0c4.42,0,8,3.58,8,8h0c0,4.42-3.58,8-8,8h0c-4.42,0-8-3.58-8-8Zm-90.22,0c0-4.42,3.58-8,8-8h0c4.41,0,8,3.58,8,8h0c0,4.42-3.59,8-8,8h0c-4.42,0-8-3.58-8-8Zm-90.23,0c0-4.42,3.58-8,8-8h0c4.42,0,8,3.58,8,8h0c0,4.42-3.58,8-8,8h0c-4.42,0-8-3.58-8-8Zm-90.23,0c0-4.42,3.59-8,8.01-8h0c4.41,0,7.99,3.58,7.99,8h0c0,4.42-3.58,8-7.99,8h0c-4.42,0-8.01-3.58-8.01-8Zm-90.22,0c0-4.42,3.58-8,8-8h0c4.42,0,8,3.58,8,8h0c0,4.42-3.58,8-8,8h0c-4.42,0-8-3.58-8-8Zm-90.23,0c0-4.42,3.58-8,8-8h0c4.42,0,8,3.58,8,8h0c0,4.42-3.58,8-8,8h0c-4.42,0-8-3.58-8-8Zm-90.22,0c0-4.42,3.58-8,8-8h0c4.41,0,8,3.58,8,8h0c0,4.42-3.59,8-8,8h0c-4.42,0-8-3.58-8-8Zm-90.23,0c0-4.42,3.58-8,8-8h0c4.42,0,8,3.58,8,8h0c0,4.42-3.58,8-8,8h0c-4.42,0-8-3.58-8-8Zm-90.23,0c0-4.42,3.59-8,8-8h0c4.42,0,8,3.58,8,8h0c0,4.42-3.58,8-8,8h0c-4.41,0-8-3.58-8-8Zm-90.22,0c0-4.42,3.58-8,8-8h0c4.42,0,8,3.58,8,8h0c0,4.42-3.58,8-8,8h0c-4.42,0-8-3.58-8-8Zm-90.23,0c0-4.42,3.58-8,8-8h0c4.42,0,8,3.58,8,8h0c0,4.42-3.58,8-8,8h0c-4.42,0-8-3.58-8-8Zm-90.23,0c0-4.42,3.59-8,8.01-8h0c4.41,0,8,3.58,8,8h0c0,4.42-3.59,8-8,8h0c-4.42,0-8.01-3.58-8.01-8Zm-90.22,0c0-4.42,3.58-8,8-8h0c4.42,0,8,3.58,8,8h0c0,4.42-3.58,8-8,8h0c-4.42,0-8-3.58-8-8Zm-90.23,0c0-4.42,3.59-8,8-8h0c4.42,0,8,3.58,8,8h0c0,4.42-3.58,8-8,8h0c-4.41,0-8-3.58-8-8Zm-90.22,0c0-4.42,3.58-8,8-8h0c4.42,0,8,3.58,8,8h0c0,4.42-3.58,8-8,8h0c-4.42,0-8-3.58-8-8Zm-90.23,0c0-4.42,3.58-8,8-8h0c4.42,0,8,3.58,8,8h0c0,4.42-3.58,8-8,8h0c-4.42,0-8-3.58-8-8Zm-90.23,0c0-4.42,3.59-8,8-8h0c4.42,0,8,3.58,8,8h0c0,4.42-3.58,8-8,8h0c-4.41,0-8-3.58-8-8Zm-90.22,0c0-4.42,3.58-8,8-8h0c4.42,0,8,3.58,8,8h0c0,4.42-3.58,8-8,8h0c-4.42,0-8-3.58-8-8Zm-90.23,0c0-4.42,3.58-8,8-8h0c4.42,0,8,3.58,8,8h0c0,4.42-3.58,8-8,8h0c-4.42,0-8-3.58-8-8Zm-90.22,0c0-4.42,3.58-8,8-8h0c4.41,0,8,3.58,8,8h0c0,4.42-3.59,8-8,8h0c-4.42,0-8-3.58-8-8Zm-90.23,0c0-4.42,3.58-8,8-8h0c4.42,0,8,3.58,8,8h0c0,4.42-3.58,8-8,8h0c-4.42,0-8-3.58-8-8Zm-90.23,0c0-4.42,3.59-8,8-8h0c4.42,0,8,3.58,8,8h0c0,4.42-3.58,8-8,8h0c-4.41,0-8-3.58-8-8Zm-90.22,0c0-4.42,3.58-8,8-8h0c4.42,0,8,3.58,8,8h0c0,4.42-3.58,8-8,8h0c-4.42,0-8-3.58-8-8Zm-90.23,0c0-4.42,3.58-8,8-8h0c4.42,0,8,3.58,8,8h0c0,4.42-3.58,8-8,8h0c-4.42,0-8-3.58-8-8Zm-90.22,0c0-4.42,3.58-8,7.99-8h0c4.42,0,8.01,3.58,8.01,8h0c0,4.42-3.59,8-8.01,8h0c-4.41,0-7.99-3.58-7.99-8Zm-90.23,0c0-4.42,3.58-8,8-8h0c4.42,0,8,3.58,8,8h0c0,4.42-3.58,8-8,8h0c-4.42,0-8-3.58-8-8Zm-90.23,0c0-4.42,3.58-8,8-8h0c4.42,0,8,3.58,8,8h0c0,4.42-3.58,8-8,8h0c-4.42,0-8-3.58-8-8Zm-90.22,0c0-4.42,3.58-8,8-8h0c4.42,0,8,3.58,8,8h0c0,4.42-3.58,8-8,8h0c-4.42,0-8-3.58-8-8Z"/><path class="uuid-53ebfd68-cc55-473b-b97a-24e3ff4299bd" d="M3211.92,376c-.52,0-1.05-.05-1.56-.16-.51-.1-1.02-.25-1.5-.45-.48-.2-.95-.45-1.38-.74-.44-.29-.85-.62-1.22-.99s-.7-.78-.99-1.22c-.29-.43-.54-.9-.74-1.38-.2-.48-.35-.99-.45-1.5-.11-.51-.16-1.04-.16-1.56,0-2.1,.85-4.17,2.34-5.66,.37-.37,.78-.7,1.22-.99,.43-.29,.9-.54,1.38-.74,.48-.2,.99-.35,1.5-.45,2.6-.53,5.36,.32,7.22,2.18,1.49,1.49,2.34,3.55,2.34,5.66,0,.52-.05,1.05-.16,1.56-.1,.51-.25,1.02-.45,1.5s-.45,.95-.74,1.38c-.29,.44-.62,.85-.99,1.22-1.49,1.49-3.55,2.34-5.66,2.34Z"/></g><g><path class="uuid-53ebfd68-cc55-473b-b97a-24e3ff4299bd" d="M8,466c-.52,0-1.05-.05-1.56-.16-.51-.1-1.02-.25-1.5-.45-.48-.2-.95-.45-1.38-.74-.44-.29-.85-.63-1.22-.99-.37-.37-.7-.78-.99-1.22-.29-.43-.54-.9-.74-1.38-.2-.48-.35-.99-.45-1.5-.11-.51-.16-1.04-.16-1.56s.05-1.05,.16-1.56c.1-.51,.25-1.02,.45-1.5,.2-.48,.45-.95,.74-1.38,.29-.44,.62-.85,.99-1.22,.37-.37,.78-.7,1.22-.99,.43-.29,.9-.54,1.38-.74,.48-.2,.99-.35,1.5-.45,1.03-.21,2.09-.21,3.12,0,.51,.1,1.02,.25,1.5,.45,.48,.2,.95,.45,1.38,.74,.44,.29,.85,.62,1.22,.99,.36,.37,.7,.78,.99,1.22,.29,.43,.54,.9,.74,1.38,.2,.48,.35,.99,.45,1.5,.11,.51,.16,1.04,.16,1.56s-.05,1.05-.16,1.56c-.1,.51-.25,1.02-.45,1.5-.2,.48-.45,.95-.74,1.38-.29,.44-.63,.85-.99,1.22-.37,.36-.78,.7-1.22,.99-.43,.29-.9,.54-1.38,.74-.48,.2-.99,.35-1.5,.45-.51,.11-1.04,.16-1.56,.16Z"/><path class="uuid-53ebfd68-cc55-473b-b97a-24e3ff4299bd" d="M3067.69,458c0-4.42,3.58-8,8-8h0c4.42,0,8,3.58,8,8h0c0,4.42-3.58,8-8,8h0c-4.42,0-8-3.58-8-8Zm-90.23,0c0-4.42,3.59-8,8-8h0c4.42,0,8,3.58,8,8h0c0,4.42-3.58,8-8,8h0c-4.41,0-8-3.58-8-8Zm-90.22,0c0-4.42,3.58-8,8-8h0c4.42,0,8,3.58,8,8h0c0,4.42-3.58,8-8,8h0c-4.42,0-8-3.58-8-8Zm-90.23,0c0-4.42,3.58-8,8-8h0c4.42,0,8,3.58,8,8h0c0,4.42-3.58,8-8,8h0c-4.42,0-8-3.58-8-8Zm-90.22,0c0-4.42,3.58-8,8-8h0c4.41,0,7.99,3.58,7.99,8h0c0,4.42-3.58,8-7.99,8h0c-4.42,0-8-3.58-8-8Zm-90.23,0c0-4.42,3.58-8,8-8h0c4.42,0,8,3.58,8,8h0c0,4.42-3.58,8-8,8h0c-4.42,0-8-3.58-8-8Zm-90.23,0c0-4.42,3.59-8,8-8h0c4.42,0,8,3.58,8,8h0c0,4.42-3.58,8-8,8h0c-4.41,0-8-3.58-8-8Zm-90.22,0c0-4.42,3.58-8,8-8h0c4.41,0,8,3.58,8,8h0c0,4.42-3.59,8-8,8h0c-4.42,0-8-3.58-8-8Zm-90.23,0c0-4.42,3.58-8,8-8h0c4.42,0,8,3.58,8,8h0c0,4.42-3.58,8-8,8h0c-4.42,0-8-3.58-8-8Zm-90.22,0c0-4.42,3.58-8,8-8h0c4.41,0,7.99,3.58,7.99,8h0c0,4.42-3.58,8-7.99,8h0c-4.42,0-8-3.58-8-8Zm-90.23,0c0-4.42,3.58-8,8-8h0c4.42,0,8,3.58,8,8h0c0,4.42-3.58,8-8,8h0c-4.42,0-8-3.58-8-8Zm-90.23,0c0-4.42,3.58-8,8-8h0c4.42,0,8,3.58,8,8h0c0,4.42-3.58,8-8,8h0c-4.42,0-8-3.58-8-8Zm-90.22,0c0-4.42,3.58-8,8-8h0c4.42,0,8,3.58,8,8h0c0,4.42-3.58,8-8,8h0c-4.42,0-8-3.58-8-8Zm-90.23,0c0-4.42,3.58-8,8-8h0c4.42,0,8,3.58,8,8h0c0,4.42-3.58,8-8,8h0c-4.42,0-8-3.58-8-8Zm-90.23,0c0-4.42,3.59-8,8-8h0c4.42,0,8.01,3.58,8.01,8h0c0,4.42-3.59,8-8.01,8h0c-4.41,0-8-3.58-8-8Zm-90.22,0c0-4.42,3.58-8,8-8h0c4.42,0,8,3.58,8,8h0c0,4.42-3.58,8-8,8h0c-4.42,0-8-3.58-8-8Zm-90.23,0c0-4.42,3.58-8,8-8h0c4.42,0,8,3.58,8,8h0c0,4.42-3.58,8-8,8h0c-4.42,0-8-3.58-8-8Zm-90.22,0c0-4.42,3.58-8,7.99-8h0c4.42,0,8.01,3.58,8.01,8h0c0,4.42-3.59,8-8.01,8h0c-4.41,0-7.99-3.58-7.99-8Zm-90.23,0c0-4.42,3.58-8,8-8h0c4.42,0,8,3.58,8,8h0c0,4.42-3.58,8-8,8h0c-4.42,0-8-3.58-8-8Zm-90.23,0c0-4.42,3.59-8,8-8h0c4.42,0,8,3.58,8,8h0c0,4.42-3.58,8-8,8h0c-4.41,0-8-3.58-8-8Zm-90.22,0c0-4.42,3.58-8,8-8h0c4.41,0,8,3.58,8,8h0c0,4.42-3.59,8-8,8h0c-4.42,0-8-3.58-8-8Zm-90.23,0c0-4.42,3.58-8,8-8h0c4.42,0,8,3.58,8,8h0c0,4.42-3.58,8-8,8h0c-4.42,0-8-3.58-8-8Zm-90.22,0c0-4.42,3.58-8,8-8h0c4.41,0,7.99,3.58,7.99,8h0c0,4.42-3.58,8-7.99,8h0c-4.42,0-8-3.58-8-8Zm-90.23,0c0-4.42,3.58-8,8-8h0c4.42,0,8,3.58,8,8h0c0,4.42-3.58,8-8,8h0c-4.42,0-8-3.58-8-8Zm-90.23,0c0-4.42,3.58-8,8-8h0c4.42,0,8,3.58,8,8h0c0,4.42-3.58,8-8,8h0c-4.42,0-8-3.58-8-8Zm-90.22,0c0-4.42,3.58-8,8-8h0c4.42,0,8,3.58,8,8h0c0,4.42-3.58,8-8,8h0c-4.42,0-8-3.58-8-8Zm-90.23,0c0-4.42,3.58-8,8-8h0c4.42,0,8,3.58,8,8h0c0,4.42-3.58,8-8,8h0c-4.42,0-8-3.58-8-8Zm-90.23,0c0-4.42,3.58-8,8-8h0c4.42,0,8,3.58,8,8h0c0,4.42-3.58,8-8,8h0c-4.42,0-8-3.58-8-8Zm-90.22,0c0-4.42,3.58-8,8-8h0c4.42,0,8,3.58,8,8h0c0,4.42-3.58,8-8,8h0c-4.42,0-8-3.58-8-8Zm-90.23,0c0-4.42,3.58-8,8-8h0c4.42,0,8,3.58,8,8h0c0,4.42-3.58,8-8,8h0c-4.42,0-8-3.58-8-8Zm-90.23,0c0-4.42,3.59-8,8-8h0c4.42,0,8,3.58,8,8h0c0,4.42-3.58,8-8,8h0c-4.41,0-8-3.58-8-8Zm-90.22,0c0-4.42,3.58-8,8-8h0c4.42,0,8,3.58,8,8h0c0,4.42-3.58,8-8,8h0c-4.42,0-8-3.58-8-8Zm-90.23,0c0-4.42,3.59-8,8-8h0c4.42,0,8,3.58,8,8h0c0,4.42-3.58,8-8,8h0c-4.41,0-8-3.58-8-8Zm-90.22,0c0-4.42,3.58-8,8-8h0c4.41,0,8,3.58,8,8h0c0,4.42-3.59,8-8,8h0c-4.42,0-8-3.58-8-8Z"/><path class="uuid-53ebfd68-cc55-473b-b97a-24e3ff4299bd" d="M3165.92,466c-.52,0-1.05-.05-1.56-.16-.51-.1-1.02-.25-1.5-.45-.48-.2-.95-.45-1.38-.74-.44-.29-.85-.62-1.22-.99s-.7-.78-.99-1.22c-.29-.43-.54-.9-.74-1.38-.2-.48-.35-.99-.45-1.5-.11-.51-.16-1.04-.16-1.56,0-2.1,.85-4.17,2.34-5.66,.37-.37,.78-.7,1.22-.99,.43-.29,.9-.54,1.38-.74,.48-.2,.99-.35,1.5-.45,1.03-.21,2.09-.21,3.12,0,.51,.1,1.02,.25,1.5,.45,.48,.2,.95,.45,1.38,.74,.44,.29,.85,.62,1.21,.99,1.5,1.49,2.35,3.55,2.35,5.66,0,.52-.05,1.05-.16,1.56-.1,.51-.25,1.02-.45,1.5s-.45,.95-.74,1.38c-.29,.44-.63,.85-1,1.22-.36,.37-.77,.7-1.21,.99-.43,.29-.9,.54-1.38,.74-.48,.2-.99,.35-1.5,.45-.51,.11-1.04,.16-1.56,.16Z"/></g></g><g><g><path class="uuid-53ebfd68-cc55-473b-b97a-24e3ff4299bd" d="M54,196c-.52,0-1.05-.05-1.56-.16-.51-.1-1.02-.25-1.5-.45-.48-.2-.95-.45-1.38-.74-.44-.29-.85-.62-1.22-.99-.37-.37-.7-.78-.99-1.22-.29-.43-.54-.9-.74-1.38-.2-.48-.35-.99-.45-1.5-.11-.51-.16-1.04-.16-1.56s.05-1.05,.16-1.56c.1-.51,.25-1.02,.45-1.5,.2-.48,.45-.95,.74-1.38,.29-.44,.62-.85,.99-1.22,.37-.36,.78-.7,1.22-.99,.43-.29,.9-.54,1.38-.74,.48-.2,.99-.35,1.5-.45,1.03-.21,2.09-.21,3.12,0,.51,.1,1.02,.25,1.5,.45,.48,.2,.95,.45,1.38,.74,.44,.29,.85,.63,1.22,.99,.37,.37,.7,.78,.99,1.22,.29,.43,.54,.9,.74,1.38,.2,.48,.35,.99,.45,1.5,.11,.51,.16,1.04,.16,1.56s-.05,1.05-.16,1.56c-.1,.51-.25,1.02-.45,1.5-.2,.48-.45,.95-.74,1.38-.29,.44-.62,.85-.99,1.22-.37,.37-.78,.7-1.22,.99-.43,.29-.9,.54-1.38,.74-.48,.2-.99,.35-1.5,.45-.51,.11-1.04,.16-1.56,.16Z"/><path class="uuid-53ebfd68-cc55-473b-b97a-24e3ff4299bd" d="M3113.69,188c0-4.42,3.58-8,8-8h0c4.42,0,8,3.58,8,8h0c0,4.42-3.58,8-8,8h0c-4.42,0-8-3.58-8-8Zm-90.22,0c0-4.42,3.57-8,8-8h0c4.41,0,7.99,3.58,7.99,8h0c0,4.42-3.58,8-7.99,8h0c-4.43,0-8-3.58-8-8Zm-90.23,0c0-4.42,3.58-8,8-8h0c4.42,0,8,3.58,8,8h0c0,4.42-3.58,8-8,8h0c-4.42,0-8-3.58-8-8Zm-90.23,0c0-4.42,3.58-8,8-8h0c4.42,0,8,3.58,8,8h0c0,4.42-3.58,8-8,8h0c-4.42,0-8-3.58-8-8Zm-90.22,0c0-4.42,3.58-8,8-8h0c4.41,0,8,3.58,8,8h0c0,4.42-3.59,8-8,8h0c-4.42,0-8-3.58-8-8Zm-90.23,0c0-4.42,3.58-8,8-8h0c4.42,0,8,3.58,8,8h0c0,4.42-3.58,8-8,8h0c-4.42,0-8-3.58-8-8Zm-90.23,0c0-4.42,3.58-8,8-8h0c4.42,0,8,3.58,8,8h0c0,4.42-3.58,8-8,8h0c-4.42,0-8-3.58-8-8Zm-90.22,0c0-4.42,3.58-8,8-8h0c4.41,0,8,3.58,8,8h0c0,4.42-3.59,8-8,8h0c-4.42,0-8-3.58-8-8Zm-90.23,0c0-4.42,3.58-8,8-8h0c4.42,0,8,3.58,8,8h0c0,4.42-3.58,8-8,8h0c-4.42,0-8-3.58-8-8Zm-90.23,0c0-4.42,3.59-8,8.01-8h0c4.41,0,7.99,3.58,7.99,8h0c0,4.42-3.58,8-7.99,8h0c-4.42,0-8.01-3.58-8.01-8Zm-90.22,0c0-4.42,3.58-8,8-8h0c4.42,0,8,3.58,8,8h0c0,4.42-3.58,8-8,8h0c-4.42,0-8-3.58-8-8Zm-90.23,0c0-4.42,3.58-8,8-8h0c4.42,0,8,3.58,8,8h0c0,4.42-3.58,8-8,8h0c-4.42,0-8-3.58-8-8Zm-90.22,0c0-4.42,3.58-8,8-8h0c4.41,0,8,3.58,8,8h0c0,4.42-3.59,8-8,8h0c-4.42,0-8-3.58-8-8Zm-90.23,0c0-4.42,3.58-8,8-8h0c4.42,0,8,3.58,8,8h0c0,4.42-3.58,8-8,8h0c-4.42,0-8-3.58-8-8Zm-90.23,0c0-4.42,3.59-8,8-8h0c4.42,0,8,3.58,8,8h0c0,4.42-3.58,8-8,8h0c-4.41,0-8-3.58-8-8Zm-90.22,0c0-4.42,3.58-8,8-8h0c4.42,0,8,3.58,8,8h0c0,4.42-3.58,8-8,8h0c-4.42,0-8-3.58-8-8Zm-90.23,0c0-4.42,3.58-8,8-8h0c4.42,0,8,3.58,8,8h0c0,4.42-3.58,8-8,8h0c-4.42,0-8-3.58-8-8Zm-90.23,0c0-4.42,3.59-8,8.01-8h0c4.41,0,8,3.58,8,8h0c0,4.42-3.59,8-8,8h0c-4.42,0-8.01-3.58-8.01-8Zm-90.22,0c0-4.42,3.58-8,8-8h0c4.42,0,8,3.58,8,8h0c0,4.42-3.58,8-8,8h0c-4.42,0-8-3.58-8-8Zm-90.23,0c0-4.42,3.59-8,8-8h0c4.42,0,8,3.58,8,8h0c0,4.42-3.58,8-8,8h0c-4.41,0-8-3.58-8-8Zm-90.22,0c0-4.42,3.58-8,8-8h0c4.42,0,8,3.58,8,8h0c0,4.42-3.58,8-8,8h0c-4.42,0-8-3.58-8-8Zm-90.23,0c0-4.42,3.58-8,8-8h0c4.42,0,8,3.58,8,8h0c0,4.42-3.58,8-8,8h0c-4.42,0-8-3.58-8-8Zm-90.23,0c0-4.42,3.59-8,8-8h0c4.42,0,8,3.58,8,8h0c0,4.42-3.58,8-8,8h0c-4.41,0-8-3.58-8-8Zm-90.22,0c0-4.42,3.58-8,8-8h0c4.42,0,8,3.58,8,8h0c0,4.42-3.58,8-8,8h0c-4.42,0-8-3.58-8-8Zm-90.23,0c0-4.42,3.58-8,8-8h0c4.42,0,8,3.58,8,8h0c0,4.42-3.58,8-8,8h0c-4.42,0-8-3.58-8-8Zm-90.22,0c0-4.42,3.58-8,8-8h0c4.41,0,8,3.58,8,8h0c0,4.42-3.59,8-8,8h0c-4.42,0-8-3.58-8-8Zm-90.23,0c0-4.42,3.58-8,8-8h0c4.42,0,8,3.58,8,8h0c0,4.42-3.58,8-8,8h0c-4.42,0-8-3.58-8-8Zm-90.23,0c0-4.42,3.59-8,8-8h0c4.42,0,8,3.58,8,8h0c0,4.42-3.58,8-8,8h0c-4.41,0-8-3.58-8-8Zm-90.22,0c0-4.42,3.58-8,8-8h0c4.42,0,8,3.58,8,8h0c0,4.42-3.58,8-8,8h0c-4.42,0-8-3.58-8-8Zm-90.23,0c0-4.42,3.58-8,8-8h0c4.42,0,8,3.58,8,8h0c0,4.42-3.58,8-8,8h0c-4.42,0-8-3.58-8-8Zm-90.22,0c0-4.42,3.58-8,7.99-8h0c4.42,0,8.01,3.58,8.01,8h0c0,4.42-3.59,8-8.01,8h0c-4.41,0-7.99-3.58-7.99-8Zm-90.23,0c0-4.42,3.58-8,8-8h0c4.42,0,8,3.58,8,8h0c0,4.42-3.58,8-8,8h0c-4.42,0-8-3.58-8-8Zm-90.23,0c0-4.42,3.58-8,8-8h0c4.42,0,8,3.58,8,8h0c0,4.42-3.58,8-8,8h0c-4.42,0-8-3.58-8-8Zm-90.22,0c0-4.42,3.58-8,8-8h0c4.42,0,8,3.58,8,8h0c0,4.42-3.58,8-8,8h0c-4.42,0-8-3.58-8-8Z"/><path class="uuid-53ebfd68-cc55-473b-b97a-24e3ff4299bd" d="M3211.92,196c-.52,0-1.05-.05-1.56-.16-.51-.1-1.02-.25-1.5-.45-.48-.2-.95-.45-1.38-.74-.44-.29-.85-.62-1.22-.99-1.49-1.49-2.34-3.55-2.34-5.66,0-.52,.05-1.05,.16-1.56,.1-.51,.25-1.02,.45-1.5,.2-.48,.45-.95,.74-1.38,.29-.44,.62-.85,.99-1.22,.37-.36,.78-.7,1.22-.99,.43-.29,.9-.54,1.38-.74,.48-.2,.99-.35,1.5-.45,2.6-.53,5.36,.33,7.22,2.18,.37,.37,.7,.78,.99,1.22,.29,.43,.54,.9,.74,1.38s.35,.99,.45,1.5c.11,.51,.16,1.04,.16,1.56,0,2.11-.85,4.17-2.34,5.66-1.49,1.49-3.55,2.34-5.66,2.34Z"/></g><g><path class="uuid-53ebfd68-cc55-473b-b97a-24e3ff4299bd" d="M8,286c-.52,0-1.05-.05-1.56-.16-.51-.1-1.02-.25-1.5-.45-.48-.2-.95-.45-1.38-.74-.44-.29-.85-.62-1.22-.99-.37-.37-.7-.78-.99-1.22-.29-.43-.54-.9-.74-1.38-.2-.48-.35-.99-.45-1.5-.11-.51-.16-1.04-.16-1.56s.05-1.05,.16-1.56c.1-.51,.25-1.02,.45-1.5,.2-.48,.45-.95,.74-1.38,.29-.44,.62-.85,.99-1.22,.37-.37,.78-.7,1.22-.99,.43-.29,.9-.54,1.38-.74,.48-.2,.99-.35,1.5-.45,1.03-.21,2.09-.21,3.12,0,.51,.1,1.02,.25,1.5,.45,.48,.2,.95,.45,1.38,.74,.44,.29,.85,.62,1.22,.99,.37,.37,.7,.78,.99,1.22,.29,.43,.54,.9,.74,1.38,.2,.48,.35,.99,.45,1.5,.11,.51,.16,1.04,.16,1.56s-.05,1.05-.16,1.56c-.1,.51-.25,1.02-.45,1.5-.2,.48-.45,.95-.74,1.38-.29,.44-.62,.85-.99,1.22-.37,.37-.78,.7-1.22,.99-.43,.29-.9,.54-1.38,.74-.48,.2-.99,.35-1.5,.45-.51,.11-1.04,.16-1.56,.16Z"/><path class="uuid-53ebfd68-cc55-473b-b97a-24e3ff4299bd" d="M3067.69,278c0-4.42,3.58-8,8-8h0c4.42,0,8,3.58,8,8h0c0,4.42-3.58,8-8,8h0c-4.42,0-8-3.58-8-8Zm-90.23,0c0-4.42,3.59-8,8-8h0c4.42,0,8,3.58,8,8h0c0,4.42-3.58,8-8,8h0c-4.41,0-8-3.58-8-8Zm-90.22,0c0-4.42,3.58-8,8-8h0c4.42,0,8,3.58,8,8h0c0,4.42-3.58,8-8,8h0c-4.42,0-8-3.58-8-8Zm-90.23,0c0-4.42,3.58-8,8-8h0c4.42,0,8,3.58,8,8h0c0,4.42-3.58,8-8,8h0c-4.42,0-8-3.58-8-8Zm-90.22,0c0-4.42,3.58-8,8-8h0c4.41,0,7.99,3.58,7.99,8h0c0,4.42-3.58,8-7.99,8h0c-4.42,0-8-3.58-8-8Zm-90.23,0c0-4.42,3.58-8,8-8h0c4.42,0,8,3.58,8,8h0c0,4.42-3.58,8-8,8h0c-4.42,0-8-3.58-8-8Zm-90.23,0c0-4.42,3.59-8,8-8h0c4.42,0,8,3.58,8,8h0c0,4.42-3.58,8-8,8h0c-4.41,0-8-3.58-8-8Zm-90.22,0c0-4.42,3.58-8,8-8h0c4.41,0,8,3.58,8,8h0c0,4.42-3.59,8-8,8h0c-4.42,0-8-3.58-8-8Zm-90.23,0c0-4.42,3.58-8,8-8h0c4.42,0,8,3.58,8,8h0c0,4.42-3.58,8-8,8h0c-4.42,0-8-3.58-8-8Zm-90.22,0c0-4.42,3.58-8,8-8h0c4.41,0,7.99,3.58,7.99,8h0c0,4.42-3.58,8-7.99,8h0c-4.42,0-8-3.58-8-8Zm-90.23,0c0-4.42,3.58-8,8-8h0c4.42,0,8,3.58,8,8h0c0,4.42-3.58,8-8,8h0c-4.42,0-8-3.58-8-8Zm-90.23,0c0-4.42,3.58-8,8-8h0c4.42,0,8,3.58,8,8h0c0,4.42-3.58,8-8,8h0c-4.42,0-8-3.58-8-8Zm-90.22,0c0-4.42,3.58-8,8-8h0c4.42,0,8,3.58,8,8h0c0,4.42-3.58,8-8,8h0c-4.42,0-8-3.58-8-8Zm-90.23,0c0-4.42,3.58-8,8-8h0c4.42,0,8,3.58,8,8h0c0,4.42-3.58,8-8,8h0c-4.42,0-8-3.58-8-8Zm-90.23,0c0-4.42,3.59-8,8-8h0c4.42,0,8.01,3.58,8.01,8h0c0,4.42-3.59,8-8.01,8h0c-4.41,0-8-3.58-8-8Zm-90.22,0c0-4.42,3.58-8,8-8h0c4.42,0,8,3.58,8,8h0c0,4.42-3.58,8-8,8h0c-4.42,0-8-3.58-8-8Zm-90.23,0c0-4.42,3.58-8,8-8h0c4.42,0,8,3.58,8,8h0c0,4.42-3.58,8-8,8h0c-4.42,0-8-3.58-8-8Zm-90.22,0c0-4.42,3.58-8,7.99-8h0c4.42,0,8.01,3.58,8.01,8h0c0,4.42-3.59,8-8.01,8h0c-4.41,0-7.99-3.58-7.99-8Zm-90.23,0c0-4.42,3.58-8,8-8h0c4.42,0,8,3.58,8,8h0c0,4.42-3.58,8-8,8h0c-4.42,0-8-3.58-8-8Zm-90.23,0c0-4.42,3.59-8,8-8h0c4.42,0,8,3.58,8,8h0c0,4.42-3.58,8-8,8h0c-4.41,0-8-3.58-8-8Zm-90.22,0c0-4.42,3.58-8,8-8h0c4.41,0,8,3.58,8,8h0c0,4.42-3.59,8-8,8h0c-4.42,0-8-3.58-8-8Zm-90.23,0c0-4.42,3.58-8,8-8h0c4.42,0,8,3.58,8,8h0c0,4.42-3.58,8-8,8h0c-4.42,0-8-3.58-8-8Zm-90.22,0c0-4.42,3.58-8,8-8h0c4.41,0,7.99,3.58,7.99,8h0c0,4.42-3.58,8-7.99,8h0c-4.42,0-8-3.58-8-8Zm-90.23,0c0-4.42,3.58-8,8-8h0c4.42,0,8,3.58,8,8h0c0,4.42-3.58,8-8,8h0c-4.42,0-8-3.58-8-8Zm-90.23,0c0-4.42,3.58-8,8-8h0c4.42,0,8,3.58,8,8h0c0,4.42-3.58,8-8,8h0c-4.42,0-8-3.58-8-8Zm-90.22,0c0-4.42,3.58-8,8-8h0c4.42,0,8,3.58,8,8h0c0,4.42-3.58,8-8,8h0c-4.42,0-8-3.58-8-8Zm-90.23,0c0-4.42,3.58-8,8-8h0c4.42,0,8,3.58,8,8h0c0,4.42-3.58,8-8,8h0c-4.42,0-8-3.58-8-8Zm-90.23,0c0-4.42,3.58-8,8-8h0c4.42,0,8,3.58,8,8h0c0,4.42-3.58,8-8,8h0c-4.42,0-8-3.58-8-8Zm-90.22,0c0-4.42,3.58-8,8-8h0c4.42,0,8,3.58,8,8h0c0,4.42-3.58,8-8,8h0c-4.42,0-8-3.58-8-8Zm-90.23,0c0-4.42,3.58-8,8-8h0c4.42,0,8,3.58,8,8h0c0,4.42-3.58,8-8,8h0c-4.42,0-8-3.58-8-8Zm-90.23,0c0-4.42,3.59-8,8-8h0c4.42,0,8,3.58,8,8h0c0,4.42-3.58,8-8,8h0c-4.41,0-8-3.58-8-8Zm-90.22,0c0-4.42,3.58-8,8-8h0c4.42,0,8,3.58,8,8h0c0,4.42-3.58,8-8,8h0c-4.42,0-8-3.58-8-8Zm-90.23,0c0-4.42,3.59-8,8-8h0c4.42,0,8,3.58,8,8h0c0,4.42-3.58,8-8,8h0c-4.41,0-8-3.58-8-8Zm-90.22,0c0-4.42,3.58-8,8-8h0c4.41,0,8,3.58,8,8h0c0,4.42-3.59,8-8,8h0c-4.42,0-8-3.58-8-8Z"/><path class="uuid-53ebfd68-cc55-473b-b97a-24e3ff4299bd" d="M3165.92,286c-.52,0-1.05-.05-1.56-.16-.51-.1-1.02-.25-1.5-.45-.48-.2-.95-.45-1.38-.74-.44-.29-.85-.62-1.22-.99s-.7-.78-.99-1.22c-.29-.43-.54-.9-.74-1.38-.2-.48-.35-.99-.45-1.5-.11-.51-.16-1.04-.16-1.56,0-2.1,.85-4.17,2.34-5.66,.37-.37,.78-.7,1.22-.99,.43-.29,.9-.54,1.38-.74,.48-.2,.99-.35,1.5-.45,1.03-.21,2.09-.21,3.12,0,.51,.1,1.02,.25,1.5,.45,.48,.2,.95,.45,1.38,.74,.44,.29,.85,.62,1.21,.99,1.5,1.49,2.35,3.55,2.35,5.66,0,.52-.05,1.05-.16,1.56-.1,.51-.25,1.02-.45,1.5s-.45,.95-.74,1.38c-.29,.44-.63,.85-1,1.22-.36,.37-.77,.7-1.21,.99-.43,.29-.9,.54-1.38,.74-.48,.2-.99,.35-1.5,.45-.51,.11-1.04,.16-1.56,.16Z"/></g></g><g><g><path class="uuid-53ebfd68-cc55-473b-b97a-24e3ff4299bd" d="M54,16c-.52,0-1.05-.05-1.56-.16-.51-.1-1.02-.25-1.5-.45-.48-.2-.95-.45-1.38-.74-.44-.29-.85-.62-1.22-.99-.37-.37-.7-.78-.99-1.22-.29-.43-.54-.9-.74-1.38-.2-.48-.35-.99-.45-1.5-.11-.51-.16-1.04-.16-1.56s.05-1.05,.16-1.56c.1-.51,.25-1.02,.45-1.5,.2-.48,.45-.95,.74-1.38,.29-.44,.62-.85,.99-1.22,.37-.36,.78-.7,1.22-.99,.43-.29,.9-.54,1.38-.74,.48-.2,.99-.35,1.5-.45,1.03-.21,2.09-.21,3.12,0,.51,.1,1.02,.25,1.5,.45,.48,.2,.95,.45,1.38,.74,.44,.29,.85,.62,1.22,.99,.37,.37,.7,.78,.99,1.22,.29,.43,.54,.9,.74,1.38,.2,.48,.35,.99,.45,1.5,.11,.51,.16,1.04,.16,1.56s-.05,1.05-.16,1.56c-.1,.51-.25,1.02-.45,1.5-.2,.48-.45,.95-.74,1.38-.29,.44-.62,.85-.99,1.22-.37,.37-.78,.7-1.22,.99-.43,.29-.9,.54-1.38,.74-.48,.2-.99,.35-1.5,.45-.51,.11-1.04,.16-1.56,.16Z"/><path class="uuid-53ebfd68-cc55-473b-b97a-24e3ff4299bd" d="M3113.69,8c0-4.42,3.58-8,8-8h0c4.42,0,8,3.58,8,8h0c0,4.42-3.58,8-8,8h0c-4.42,0-8-3.58-8-8Zm-90.22,0c0-4.42,3.57-8,8-8h0c4.41,0,7.99,3.58,7.99,8h0c0,4.42-3.58,8-7.99,8h0c-4.43,0-8-3.58-8-8Zm-90.23,0c0-4.42,3.58-8,8-8h0c4.42,0,8,3.58,8,8h0c0,4.42-3.58,8-8,8h0c-4.42,0-8-3.58-8-8Zm-90.23,0c0-4.42,3.58-8,8-8h0c4.42,0,8,3.58,8,8h0c0,4.42-3.58,8-8,8h0c-4.42,0-8-3.58-8-8Zm-90.22,0c0-4.42,3.58-8,8-8h0c4.41,0,8,3.58,8,8h0c0,4.42-3.59,8-8,8h0c-4.42,0-8-3.58-8-8Zm-90.23,0c0-4.42,3.58-8,8-8h0c4.42,0,8,3.58,8,8h0c0,4.42-3.58,8-8,8h0c-4.42,0-8-3.58-8-8Zm-90.23,0c0-4.42,3.58-8,8-8h0c4.42,0,8,3.58,8,8h0c0,4.42-3.58,8-8,8h0c-4.42,0-8-3.58-8-8Zm-90.22,0c0-4.42,3.58-8,8-8h0c4.41,0,8,3.58,8,8h0c0,4.42-3.59,8-8,8h0c-4.42,0-8-3.58-8-8Zm-90.23,0c0-4.42,3.58-8,8-8h0c4.42,0,8,3.58,8,8h0c0,4.42-3.58,8-8,8h0c-4.42,0-8-3.58-8-8Zm-90.23,0c0-4.42,3.59-8,8.01-8h0c4.41,0,7.99,3.58,7.99,8h0c0,4.42-3.58,8-7.99,8h0c-4.42,0-8.01-3.58-8.01-8Zm-90.22,0c0-4.42,3.58-8,8-8h0c4.42,0,8,3.58,8,8h0c0,4.42-3.58,8-8,8h0c-4.42,0-8-3.58-8-8Zm-90.23,0c0-4.42,3.58-8,8-8h0c4.42,0,8,3.58,8,8h0c0,4.42-3.58,8-8,8h0c-4.42,0-8-3.58-8-8Zm-90.22,0c0-4.42,3.58-8,8-8h0c4.41,0,8,3.58,8,8h0c0,4.42-3.59,8-8,8h0c-4.42,0-8-3.58-8-8Zm-90.23,0c0-4.42,3.58-8,8-8h0c4.42,0,8,3.58,8,8h0c0,4.42-3.58,8-8,8h0c-4.42,0-8-3.58-8-8Zm-90.23,0c0-4.42,3.59-8,8-8h0c4.42,0,8,3.58,8,8h0c0,4.42-3.58,8-8,8h0c-4.41,0-8-3.58-8-8Zm-90.22,0c0-4.42,3.58-8,8-8h0c4.42,0,8,3.58,8,8h0c0,4.42-3.58,8-8,8h0c-4.42,0-8-3.58-8-8Zm-90.23,0c0-4.42,3.58-8,8-8h0c4.42,0,8,3.58,8,8h0c0,4.42-3.58,8-8,8h0c-4.42,0-8-3.58-8-8Zm-90.23,0c0-4.42,3.59-8,8.01-8h0c4.41,0,8,3.58,8,8h0c0,4.42-3.59,8-8,8h0c-4.42,0-8.01-3.58-8.01-8Zm-90.22,0c0-4.42,3.58-8,8-8h0c4.42,0,8,3.58,8,8h0c0,4.42-3.58,8-8,8h0c-4.42,0-8-3.58-8-8Zm-90.23,0c0-4.42,3.59-8,8-8h0c4.42,0,8,3.58,8,8h0c0,4.42-3.58,8-8,8h0c-4.41,0-8-3.58-8-8Zm-90.22,0c0-4.42,3.58-8,8-8h0c4.42,0,8,3.58,8,8h0c0,4.42-3.58,8-8,8h0c-4.42,0-8-3.58-8-8Zm-90.23,0c0-4.42,3.58-8,8-8h0c4.42,0,8,3.58,8,8h0c0,4.42-3.58,8-8,8h0c-4.42,0-8-3.58-8-8Zm-90.23,0c0-4.42,3.59-8,8-8h0c4.42,0,8,3.58,8,8h0c0,4.42-3.58,8-8,8h0c-4.41,0-8-3.58-8-8Zm-90.22,0c0-4.42,3.58-8,8-8h0c4.42,0,8,3.58,8,8h0c0,4.42-3.58,8-8,8h0c-4.42,0-8-3.58-8-8Zm-90.23,0c0-4.42,3.58-8,8-8h0c4.42,0,8,3.58,8,8h0c0,4.42-3.58,8-8,8h0c-4.42,0-8-3.58-8-8Zm-90.22,0c0-4.42,3.58-8,8-8h0c4.41,0,8,3.58,8,8h0c0,4.42-3.59,8-8,8h0c-4.42,0-8-3.58-8-8Zm-90.23,0c0-4.42,3.58-8,8-8h0c4.42,0,8,3.58,8,8h0c0,4.42-3.58,8-8,8h0c-4.42,0-8-3.58-8-8Zm-90.23,0c0-4.42,3.59-8,8-8h0c4.42,0,8,3.58,8,8h0c0,4.42-3.58,8-8,8h0c-4.41,0-8-3.58-8-8Zm-90.22,0c0-4.42,3.58-8,8-8h0c4.42,0,8,3.58,8,8h0c0,4.42-3.58,8-8,8h0c-4.42,0-8-3.58-8-8Zm-90.23,0c0-4.42,3.58-8,8-8h0c4.42,0,8,3.58,8,8h0c0,4.42-3.58,8-8,8h0c-4.42,0-8-3.58-8-8Zm-90.22,0c0-4.42,3.58-8,7.99-8h0c4.42,0,8.01,3.58,8.01,8h0c0,4.42-3.59,8-8.01,8h0c-4.41,0-7.99-3.58-7.99-8Zm-90.23,0c0-4.42,3.58-8,8-8h0c4.42,0,8,3.58,8,8h0c0,4.42-3.58,8-8,8h0c-4.42,0-8-3.58-8-8Zm-90.23,0c0-4.42,3.58-8,8-8h0c4.42,0,8,3.58,8,8h0c0,4.42-3.58,8-8,8h0c-4.42,0-8-3.58-8-8Zm-90.22,0c0-4.42,3.58-8,8-8h0c4.42,0,8,3.58,8,8h0c0,4.42-3.58,8-8,8h0c-4.42,0-8-3.58-8-8Z"/><path class="uuid-53ebfd68-cc55-473b-b97a-24e3ff4299bd" d="M3211.92,16c-.52,0-1.05-.05-1.56-.16-.51-.1-1.02-.25-1.5-.45-.48-.2-.95-.45-1.38-.74-.44-.29-.85-.62-1.22-.99-1.49-1.49-2.34-3.55-2.34-5.66,0-.52,.05-1.05,.16-1.56,.1-.51,.25-1.02,.45-1.5,.2-.48,.45-.95,.74-1.38,.29-.44,.62-.85,.99-1.22s.78-.7,1.22-.99c.43-.29,.9-.54,1.38-.74,.48-.2,.99-.35,1.5-.45,1.03-.21,2.09-.21,3.12,0,.51,.1,1.02,.25,1.5,.45,.48,.2,.95,.45,1.38,.74,.44,.29,.85,.62,1.22,.99s.7,.78,.99,1.22c.29,.43,.54,.9,.74,1.38s.35,.99,.45,1.5c.11,.51,.16,1.04,.16,1.56,0,2.11-.85,4.17-2.34,5.66-1.49,1.49-3.55,2.34-5.66,2.34Z"/></g><g><path class="uuid-53ebfd68-cc55-473b-b97a-24e3ff4299bd" d="M8,106c-.52,0-1.05-.05-1.56-.16-.51-.1-1.02-.25-1.5-.45-.48-.2-.95-.45-1.38-.74-.44-.29-.85-.62-1.22-.99-.36-.37-.7-.78-.99-1.22-.29-.43-.54-.9-.74-1.38-.2-.48-.35-.99-.45-1.5-.11-.51-.16-1.04-.16-1.56s.05-1.05,.16-1.56c.1-.51,.25-1.02,.45-1.5,.2-.48,.45-.95,.74-1.38,.29-.44,.63-.85,.99-1.22,.37-.37,.78-.7,1.22-.99,.43-.29,.9-.54,1.38-.74,.48-.2,.99-.35,1.5-.45,1.03-.21,2.09-.21,3.12,0,.51,.1,1.02,.25,1.5,.45,.48,.2,.95,.45,1.38,.74,.44,.29,.85,.62,1.22,.99,.37,.37,.7,.78,.99,1.22,.29,.43,.54,.9,.74,1.38,.2,.48,.35,.99,.45,1.5,.11,.51,.16,1.04,.16,1.56s-.05,1.05-.16,1.56c-.1,.51-.25,1.02-.45,1.5-.2,.48-.45,.95-.74,1.38-.29,.44-.62,.85-.99,1.22-.37,.37-.78,.7-1.22,.99-.43,.29-.9,.54-1.38,.74-.48,.2-.99,.35-1.5,.45-.51,.11-1.04,.16-1.56,.16Z"/><path class="uuid-53ebfd68-cc55-473b-b97a-24e3ff4299bd" d="M3067.69,98c0-4.42,3.58-8,8-8h0c4.42,0,8,3.58,8,8h0c0,4.42-3.58,8-8,8h0c-4.42,0-8-3.58-8-8Zm-90.23,0c0-4.42,3.59-8,8-8h0c4.42,0,8,3.58,8,8h0c0,4.42-3.58,8-8,8h0c-4.41,0-8-3.58-8-8Zm-90.22,0c0-4.42,3.58-8,8-8h0c4.42,0,8,3.58,8,8h0c0,4.42-3.58,8-8,8h0c-4.42,0-8-3.58-8-8Zm-90.23,0c0-4.42,3.58-8,8-8h0c4.42,0,8,3.58,8,8h0c0,4.42-3.58,8-8,8h0c-4.42,0-8-3.58-8-8Zm-90.22,0c0-4.42,3.58-8,8-8h0c4.41,0,7.99,3.58,7.99,8h0c0,4.42-3.58,8-7.99,8h0c-4.42,0-8-3.58-8-8Zm-90.23,0c0-4.42,3.58-8,8-8h0c4.42,0,8,3.58,8,8h0c0,4.42-3.58,8-8,8h0c-4.42,0-8-3.58-8-8Zm-90.23,0c0-4.42,3.59-8,8-8h0c4.42,0,8,3.58,8,8h0c0,4.42-3.58,8-8,8h0c-4.41,0-8-3.58-8-8Zm-90.22,0c0-4.42,3.58-8,8-8h0c4.41,0,8,3.58,8,8h0c0,4.42-3.59,8-8,8h0c-4.42,0-8-3.58-8-8Zm-90.23,0c0-4.42,3.58-8,8-8h0c4.42,0,8,3.58,8,8h0c0,4.42-3.58,8-8,8h0c-4.42,0-8-3.58-8-8Zm-90.22,0c0-4.42,3.58-8,8-8h0c4.41,0,7.99,3.58,7.99,8h0c0,4.42-3.58,8-7.99,8h0c-4.42,0-8-3.58-8-8Zm-90.23,0c0-4.42,3.58-8,8-8h0c4.42,0,8,3.58,8,8h0c0,4.42-3.58,8-8,8h0c-4.42,0-8-3.58-8-8Zm-90.23,0c0-4.42,3.58-8,8-8h0c4.42,0,8,3.58,8,8h0c0,4.42-3.58,8-8,8h0c-4.42,0-8-3.58-8-8Zm-90.22,0c0-4.42,3.58-8,8-8h0c4.42,0,8,3.58,8,8h0c0,4.42-3.58,8-8,8h0c-4.42,0-8-3.58-8-8Zm-90.23,0c0-4.42,3.58-8,8-8h0c4.42,0,8,3.58,8,8h0c0,4.42-3.58,8-8,8h0c-4.42,0-8-3.58-8-8Zm-90.23,0c0-4.42,3.59-8,8-8h0c4.42,0,8.01,3.58,8.01,8h0c0,4.42-3.59,8-8.01,8h0c-4.41,0-8-3.58-8-8Zm-90.22,0c0-4.42,3.58-8,8-8h0c4.42,0,8,3.58,8,8h0c0,4.42-3.58,8-8,8h0c-4.42,0-8-3.58-8-8Zm-90.23,0c0-4.42,3.58-8,8-8h0c4.42,0,8,3.58,8,8h0c0,4.42-3.58,8-8,8h0c-4.42,0-8-3.58-8-8Zm-90.22,0c0-4.42,3.58-8,7.99-8h0c4.42,0,8.01,3.58,8.01,8h0c0,4.42-3.59,8-8.01,8h0c-4.41,0-7.99-3.58-7.99-8Zm-90.23,0c0-4.42,3.58-8,8-8h0c4.42,0,8,3.58,8,8h0c0,4.42-3.58,8-8,8h0c-4.42,0-8-3.58-8-8Zm-90.23,0c0-4.42,3.59-8,8-8h0c4.42,0,8,3.58,8,8h0c0,4.42-3.58,8-8,8h0c-4.41,0-8-3.58-8-8Zm-90.22,0c0-4.42,3.58-8,8-8h0c4.41,0,8,3.58,8,8h0c0,4.42-3.59,8-8,8h0c-4.42,0-8-3.58-8-8Zm-90.23,0c0-4.42,3.58-8,8-8h0c4.42,0,8,3.58,8,8h0c0,4.42-3.58,8-8,8h0c-4.42,0-8-3.58-8-8Zm-90.22,0c0-4.42,3.58-8,8-8h0c4.41,0,7.99,3.58,7.99,8h0c0,4.42-3.58,8-7.99,8h0c-4.42,0-8-3.58-8-8Zm-90.23,0c0-4.42,3.58-8,8-8h0c4.42,0,8,3.58,8,8h0c0,4.42-3.58,8-8,8h0c-4.42,0-8-3.58-8-8Zm-90.23,0c0-4.42,3.58-8,8-8h0c4.42,0,8,3.58,8,8h0c0,4.42-3.58,8-8,8h0c-4.42,0-8-3.58-8-8Zm-90.22,0c0-4.42,3.58-8,8-8h0c4.42,0,8,3.58,8,8h0c0,4.42-3.58,8-8,8h0c-4.42,0-8-3.58-8-8Zm-90.23,0c0-4.42,3.58-8,8-8h0c4.42,0,8,3.58,8,8h0c0,4.42-3.58,8-8,8h0c-4.42,0-8-3.58-8-8Zm-90.23,0c0-4.42,3.58-8,8-8h0c4.42,0,8,3.58,8,8h0c0,4.42-3.58,8-8,8h0c-4.42,0-8-3.58-8-8Zm-90.22,0c0-4.42,3.58-8,8-8h0c4.42,0,8,3.58,8,8h0c0,4.42-3.58,8-8,8h0c-4.42,0-8-3.58-8-8Zm-90.23,0c0-4.42,3.58-8,8-8h0c4.42,0,8,3.58,8,8h0c0,4.42-3.58,8-8,8h0c-4.42,0-8-3.58-8-8Zm-90.23,0c0-4.42,3.59-8,8-8h0c4.42,0,8,3.58,8,8h0c0,4.42-3.58,8-8,8h0c-4.41,0-8-3.58-8-8Zm-90.22,0c0-4.42,3.58-8,8-8h0c4.42,0,8,3.58,8,8h0c0,4.42-3.58,8-8,8h0c-4.42,0-8-3.58-8-8Zm-90.23,0c0-4.42,3.59-8,8-8h0c4.42,0,8,3.58,8,8h0c0,4.42-3.58,8-8,8h0c-4.41,0-8-3.58-8-8Zm-90.22,0c0-4.42,3.58-8,8-8h0c4.41,0,8,3.58,8,8h0c0,4.42-3.59,8-8,8h0c-4.42,0-8-3.58-8-8Z"/><path class="uuid-53ebfd68-cc55-473b-b97a-24e3ff4299bd" d="M3165.92,106c-.52,0-1.05-.05-1.56-.16-.51-.1-1.02-.25-1.5-.45-.48-.2-.95-.45-1.38-.74-.44-.29-.85-.62-1.22-.99s-.7-.78-.99-1.22c-.29-.43-.54-.9-.74-1.38-.2-.48-.35-.99-.45-1.5-.11-.51-.16-1.04-.16-1.56,0-2.1,.85-4.17,2.34-5.66,.37-.37,.78-.7,1.22-.99,.43-.29,.9-.54,1.38-.74,.48-.2,.99-.35,1.5-.45,1.03-.21,2.09-.21,3.12,0,.51,.1,1.02,.25,1.5,.45,.48,.2,.95,.45,1.38,.74,.44,.29,.85,.62,1.21,.99,1.5,1.49,2.35,3.55,2.35,5.66,0,.52-.05,1.05-.16,1.56-.1,.51-.25,1.02-.45,1.5s-.45,.95-.74,1.38c-.29,.44-.63,.85-1,1.22-.36,.37-.77,.7-1.21,.99-.43,.29-.9,.54-1.38,.74-.48,.2-.99,.35-1.5,.45-.51,.11-1.04,.16-1.56,.16Z"/></g></g></svg>