<?xml version="1.0" encoding="UTF-8"?><svg id="uuid-d3f4d04e-4ae8-4f34-ac1b-3a1d8d8e1f0b" xmlns="http://www.w3.org/2000/svg" viewBox="0 0 252.9 218.2"><defs><style>.uuid-74ccda5b-ca99-4604-90fd-e57fbfe1d015{fill:#00817c;}.uuid-7b3a2624-292d-4307-b867-1daf046c1ab6{fill:#00917c;}</style></defs><path class="uuid-74ccda5b-ca99-4604-90fd-e57fbfe1d015" d="M0,175.97v33.48c0,4.81,3.94,8.75,8.75,8.75h0c9.4,0,13.5-7.42,13.5-7.42l.62-145.85,7.7-7.94,204.83-8.37v-4.16c0-6.73-5.46-12.19-12.19-12.19h-82.05c-3.23,0-6.33-1.28-8.62-3.57L107.42,3.57c-2.28-2.28-5.39-3.57-8.62-3.57H12.19C5.46,0,0,5.46,0,12.19V175.97"/><path class="uuid-7b3a2624-292d-4307-b867-1daf046c1ab6" d="M8.75,218.2h0c4.81,0,8.75-3.94,8.75-8.75V60.8c0-6.72,5.45-12.18,12.18-12.18H240.73c6.72,0,12.18,5.45,12.18,12.18V206.03c0,6.72-5.45,12.18-12.18,12.18,0,0-231.98,0-231.98,0Z"/></svg>